<?xml version="1.0" encoding="utf-8" standalone="no"?>
<!DOCTYPE svg PUBLIC "-//W3C//DTD SVG 1.1//EN"
  "http://www.w3.org/Graphics/SVG/1.1/DTD/svg11.dtd">
<svg xmlns:xlink="http://www.w3.org/1999/xlink" width="460.8pt" height="345.6pt" viewBox="0 0 460.8 345.6" xmlns="http://www.w3.org/2000/svg" version="1.1">
 <metadata>
  <rdf:RDF xmlns:dc="http://purl.org/dc/elements/1.1/" xmlns:cc="http://creativecommons.org/ns#" xmlns:rdf="http://www.w3.org/1999/02/22-rdf-syntax-ns#">
   <cc:Work>
    <dc:type rdf:resource="http://purl.org/dc/dcmitype/StillImage"/>
    <dc:date>2022-03-08T15:02:10.906088</dc:date>
    <dc:format>image/svg+xml</dc:format>
    <dc:creator>
     <cc:Agent>
      <dc:title>Matplotlib v3.5.0, https://matplotlib.org/</dc:title>
     </cc:Agent>
    </dc:creator>
   </cc:Work>
  </rdf:RDF>
 </metadata>
 <defs>
  <style type="text/css">*{stroke-linejoin: round; stroke-linecap: butt}</style>
 </defs>
 <g id="figure_1">
  <g id="patch_1">
   <path d="M 0 345.6 
L 460.8 345.6 
L 460.8 0 
L 0 0 
z
" style="fill: #ffffff"/>
  </g>
  <g id="patch_2">
   <path d="M 103.104 307.584 
L 369.216 307.584 
L 369.216 41.472 
L 103.104 41.472 
z
" style="fill: #ffffff"/>
  </g>
  <g id="pane3d_1">
   <g id="patch_3">
    <path d="M 123.197291 241.969309 
L 211.076164 168.307495 
L 209.854564 62.073991 
L 117.770234 129.272941 
" style="fill: #f2f2f2; opacity: 0.5; stroke: #f2f2f2; stroke-linejoin: miter"/>
   </g>
  </g>
  <g id="pane3d_2">
   <g id="patch_4">
    <path d="M 211.076164 168.307495 
L 352.090401 209.294766 
L 357.122702 99.402171 
L 209.854564 62.073991 
" style="fill: #e6e6e6; opacity: 0.5; stroke: #e6e6e6; stroke-linejoin: miter"/>
   </g>
  </g>
  <g id="pane3d_3">
   <g id="patch_5">
    <path d="M 123.197291 241.969309 
L 272.679269 290.790123 
L 352.090401 209.294766 
L 211.076164 168.307495 
" style="fill: #ececec; opacity: 0.5; stroke: #ececec; stroke-linejoin: miter"/>
   </g>
  </g>
  <g id="axis3d_1">
   <g id="line2d_1">
    <path d="M 123.197291 241.969309 
L 272.679269 290.790123 
" style="fill: none; stroke: #000000; stroke-width: 0.8; stroke-linecap: square"/>
   </g>
   <g id="Line3DCollection_1">
    <path d="M 127.623349 243.414859 
L 215.269424 169.52631 
L 214.224831 63.181726 
" style="fill: none; stroke: #b0b0b0; stroke-width: 0.8"/>
    <path d="M 159.752341 253.908188 
L 245.675619 178.36419 
L 245.930951 71.218303 
" style="fill: none; stroke: #b0b0b0; stroke-width: 0.8"/>
    <path d="M 192.63685 264.648269 
L 276.737051 187.392522 
L 278.350123 79.435618 
" style="fill: none; stroke: #b0b0b0; stroke-width: 0.8"/>
    <path d="M 226.303842 275.643908 
L 308.47513 196.617529 
L 311.506675 87.839838 
" style="fill: none; stroke: #b0b0b0; stroke-width: 0.8"/>
    <path d="M 260.781582 286.904338 
L 340.91221 206.045707 
L 345.426053 96.437411 
" style="fill: none; stroke: #b0b0b0; stroke-width: 0.8"/>
   </g>
   <g id="xtick_1">
    <g id="line2d_2">
     <path d="M 128.386462 242.771529 
L 126.093853 244.704275 
" style="fill: none; stroke: #000000; stroke-width: 0.8; stroke-linecap: square"/>
    </g>
    <g id="text_1">
     <!-- 0 -->
     <g transform="translate(116.908504 266.692052)scale(0.1 -0.1)">
      <defs>
       <path id="DejaVuSans-30" d="M 2034 4250 
Q 1547 4250 1301 3770 
Q 1056 3291 1056 2328 
Q 1056 1369 1301 889 
Q 1547 409 2034 409 
Q 2525 409 2770 889 
Q 3016 1369 3016 2328 
Q 3016 3291 2770 3770 
Q 2525 4250 2034 4250 
z
M 2034 4750 
Q 2819 4750 3233 4129 
Q 3647 3509 3647 2328 
Q 3647 1150 3233 529 
Q 2819 -91 2034 -91 
Q 1250 -91 836 529 
Q 422 1150 422 2328 
Q 422 3509 836 4129 
Q 1250 4750 2034 4750 
z
" transform="scale(0.015625)"/>
      </defs>
      <use xlink:href="#DejaVuSans-30"/>
     </g>
    </g>
   </g>
   <g id="xtick_2">
    <g id="line2d_3">
     <path d="M 160.501159 253.249825 
L 158.251458 255.227769 
" style="fill: none; stroke: #000000; stroke-width: 0.8; stroke-linecap: square"/>
    </g>
    <g id="text_2">
     <!-- 20 -->
     <g transform="translate(145.888992 277.407661)scale(0.1 -0.1)">
      <defs>
       <path id="DejaVuSans-32" d="M 1228 531 
L 3431 531 
L 3431 0 
L 469 0 
L 469 531 
Q 828 903 1448 1529 
Q 2069 2156 2228 2338 
Q 2531 2678 2651 2914 
Q 2772 3150 2772 3378 
Q 2772 3750 2511 3984 
Q 2250 4219 1831 4219 
Q 1534 4219 1204 4116 
Q 875 4013 500 3803 
L 500 4441 
Q 881 4594 1212 4672 
Q 1544 4750 1819 4750 
Q 2544 4750 2975 4387 
Q 3406 4025 3406 3419 
Q 3406 3131 3298 2873 
Q 3191 2616 2906 2266 
Q 2828 2175 2409 1742 
Q 1991 1309 1228 531 
z
" transform="scale(0.015625)"/>
      </defs>
      <use xlink:href="#DejaVuSans-32"/>
      <use xlink:href="#DejaVuSans-30" x="63.623047"/>
     </g>
    </g>
   </g>
   <g id="xtick_3">
    <g id="line2d_4">
     <path d="M 193.370487 263.974338 
L 191.166359 265.999085 
" style="fill: none; stroke: #000000; stroke-width: 0.8; stroke-linecap: square"/>
    </g>
    <g id="text_3">
     <!-- 40 -->
     <g transform="translate(178.809891 288.376207)scale(0.1 -0.1)">
      <defs>
       <path id="DejaVuSans-34" d="M 2419 4116 
L 825 1625 
L 2419 1625 
L 2419 4116 
z
M 2253 4666 
L 3047 4666 
L 3047 1625 
L 3713 1625 
L 3713 1100 
L 3047 1100 
L 3047 0 
L 2419 0 
L 2419 1100 
L 313 1100 
L 313 1709 
L 2253 4666 
z
" transform="scale(0.015625)"/>
      </defs>
      <use xlink:href="#DejaVuSans-34"/>
      <use xlink:href="#DejaVuSans-30" x="63.623047"/>
     </g>
    </g>
   </g>
   <g id="xtick_4">
    <g id="line2d_5">
     <path d="M 227.021359 274.953852 
L 224.865624 277.027082 
" style="fill: none; stroke: #000000; stroke-width: 0.8; stroke-linecap: square"/>
    </g>
    <g id="text_4">
     <!-- 60 -->
     <g transform="translate(212.517149 299.606751)scale(0.1 -0.1)">
      <defs>
       <path id="DejaVuSans-36" d="M 2113 2584 
Q 1688 2584 1439 2293 
Q 1191 2003 1191 1497 
Q 1191 994 1439 701 
Q 1688 409 2113 409 
Q 2538 409 2786 701 
Q 3034 994 3034 1497 
Q 3034 2003 2786 2293 
Q 2538 2584 2113 2584 
z
M 3366 4563 
L 3366 3988 
Q 3128 4100 2886 4159 
Q 2644 4219 2406 4219 
Q 1781 4219 1451 3797 
Q 1122 3375 1075 2522 
Q 1259 2794 1537 2939 
Q 1816 3084 2150 3084 
Q 2853 3084 3261 2657 
Q 3669 2231 3669 1497 
Q 3669 778 3244 343 
Q 2819 -91 2113 -91 
Q 1303 -91 875 529 
Q 447 1150 447 2328 
Q 447 3434 972 4092 
Q 1497 4750 2381 4750 
Q 2619 4750 2861 4703 
Q 3103 4656 3366 4563 
z
" transform="scale(0.015625)"/>
      </defs>
      <use xlink:href="#DejaVuSans-36"/>
      <use xlink:href="#DejaVuSans-30" x="63.623047"/>
     </g>
    </g>
   </g>
   <g id="xtick_5">
    <g id="line2d_6">
     <path d="M 261.481986 286.197571 
L 259.377629 288.321046 
" style="fill: none; stroke: #000000; stroke-width: 0.8; stroke-linecap: square"/>
    </g>
    <g id="text_5">
     <!-- 80 -->
     <g transform="translate(247.039283 311.108794)scale(0.1 -0.1)">
      <defs>
       <path id="DejaVuSans-38" d="M 2034 2216 
Q 1584 2216 1326 1975 
Q 1069 1734 1069 1313 
Q 1069 891 1326 650 
Q 1584 409 2034 409 
Q 2484 409 2743 651 
Q 3003 894 3003 1313 
Q 3003 1734 2745 1975 
Q 2488 2216 2034 2216 
z
M 1403 2484 
Q 997 2584 770 2862 
Q 544 3141 544 3541 
Q 544 4100 942 4425 
Q 1341 4750 2034 4750 
Q 2731 4750 3128 4425 
Q 3525 4100 3525 3541 
Q 3525 3141 3298 2862 
Q 3072 2584 2669 2484 
Q 3125 2378 3379 2068 
Q 3634 1759 3634 1313 
Q 3634 634 3220 271 
Q 2806 -91 2034 -91 
Q 1263 -91 848 271 
Q 434 634 434 1313 
Q 434 1759 690 2068 
Q 947 2378 1403 2484 
z
M 1172 3481 
Q 1172 3119 1398 2916 
Q 1625 2713 2034 2713 
Q 2441 2713 2670 2916 
Q 2900 3119 2900 3481 
Q 2900 3844 2670 4047 
Q 2441 4250 2034 4250 
Q 1625 4250 1398 4047 
Q 1172 3844 1172 3481 
z
" transform="scale(0.015625)"/>
      </defs>
      <use xlink:href="#DejaVuSans-38"/>
      <use xlink:href="#DejaVuSans-30" x="63.623047"/>
     </g>
    </g>
   </g>
  </g>
  <g id="axis3d_2">
   <g id="line2d_7">
    <path d="M 352.090401 209.294766 
L 272.679269 290.790123 
" style="fill: none; stroke: #000000; stroke-width: 0.8; stroke-linecap: square"/>
   </g>
   <g id="Line3DCollection_2">
    <path d="M 120.897983 126.990452 
L 126.171268 239.476463 
L 275.378169 288.020387 
" style="fill: none; stroke: #b0b0b0; stroke-width: 0.8"/>
    <path d="M 142.787149 111.016736 
L 147.005724 222.012609 
L 294.262916 268.639991 
" style="fill: none; stroke: #b0b0b0; stroke-width: 0.8"/>
    <path d="M 163.804928 95.678918 
L 167.046176 205.214304 
L 312.390659 250.036468 
" style="fill: none; stroke: #b0b0b0; stroke-width: 0.8"/>
    <path d="M 184.00234 80.939766 
L 186.337165 189.044215 
L 329.806021 232.164021 
" style="fill: none; stroke: #b0b0b0; stroke-width: 0.8"/>
    <path d="M 203.426496 66.764902 
L 204.919961 173.467747 
L 346.550187 214.980388 
" style="fill: none; stroke: #b0b0b0; stroke-width: 0.8"/>
   </g>
   <g id="xtick_6">
    <g id="line2d_8">
     <path d="M 274.120605 287.611243 
L 277.89656 288.839736 
" style="fill: none; stroke: #000000; stroke-width: 0.8; stroke-linecap: square"/>
    </g>
    <g id="text_6">
     <!-- 0 -->
     <g transform="translate(285.115017 309.084632)scale(0.1 -0.1)">
      <use xlink:href="#DejaVuSans-30"/>
     </g>
    </g>
   </g>
   <g id="xtick_7">
    <g id="line2d_9">
     <path d="M 293.023074 268.247409 
L 296.74575 269.426154 
" style="fill: none; stroke: #000000; stroke-width: 0.8; stroke-linecap: square"/>
    </g>
    <g id="text_7">
     <!-- 20 -->
     <g transform="translate(300.565258 289.417261)scale(0.1 -0.1)">
      <use xlink:href="#DejaVuSans-32"/>
      <use xlink:href="#DejaVuSans-30" x="63.623047"/>
     </g>
    </g>
   </g>
   <g id="xtick_8">
    <g id="line2d_10">
     <path d="M 311.168143 249.659461 
L 314.838735 250.791419 
" style="fill: none; stroke: #000000; stroke-width: 0.8; stroke-linecap: square"/>
    </g>
    <g id="text_8">
     <!-- 40 -->
     <g transform="translate(318.449468 270.538721)scale(0.1 -0.1)">
      <use xlink:href="#DejaVuSans-34"/>
      <use xlink:href="#DejaVuSans-30" x="63.623047"/>
     </g>
    </g>
   </g>
   <g id="xtick_9">
    <g id="line2d_11">
     <path d="M 328.60044 231.801682 
L 332.220127 232.889585 
" style="fill: none; stroke: #000000; stroke-width: 0.8; stroke-linecap: square"/>
    </g>
    <g id="text_9">
     <!-- 60 -->
     <g transform="translate(335.63047 252.402484)scale(0.1 -0.1)">
      <use xlink:href="#DejaVuSans-36"/>
      <use xlink:href="#DejaVuSans-30" x="63.623047"/>
     </g>
    </g>
   </g>
   <g id="xtick_10">
    <g id="line2d_12">
     <path d="M 345.361155 214.631876 
L 348.931096 215.678247 
" style="fill: none; stroke: #000000; stroke-width: 0.8; stroke-linecap: square"/>
    </g>
    <g id="text_10">
     <!-- 80 -->
     <g transform="translate(352.148941 234.965615)scale(0.1 -0.1)">
      <use xlink:href="#DejaVuSans-38"/>
      <use xlink:href="#DejaVuSans-30" x="63.623047"/>
     </g>
    </g>
   </g>
  </g>
  <g id="axis3d_3">
   <g id="line2d_13">
    <path d="M 352.090401 209.294766 
L 357.122702 99.402171 
" style="fill: none; stroke: #000000; stroke-width: 0.8; stroke-linecap: square"/>
   </g>
   <g id="Line3DCollection_3">
    <path d="M 352.518634 199.943243 
L 210.972009 159.249873 
L 122.736177 232.393977 
" style="fill: none; stroke: #b0b0b0; stroke-width: 0.8"/>
    <path d="M 353.188185 185.321961 
L 210.809235 145.094638 
L 122.014952 217.417261 
" style="fill: none; stroke: #b0b0b0; stroke-width: 0.8"/>
    <path d="M 353.865735 170.526008 
L 210.64461 130.778397 
L 121.284781 202.25479 
" style="fill: none; stroke: #b0b0b0; stroke-width: 0.8"/>
    <path d="M 354.551427 155.552235 
L 210.478101 116.298387 
L 120.545497 186.903085 
" style="fill: none; stroke: #b0b0b0; stroke-width: 0.8"/>
    <path d="M 355.24541 140.397418 
L 210.309677 101.651782 
L 119.796929 171.358582 
" style="fill: none; stroke: #b0b0b0; stroke-width: 0.8"/>
    <path d="M 355.947835 125.058253 
L 210.139304 86.835691 
L 119.0389 155.617626 
" style="fill: none; stroke: #b0b0b0; stroke-width: 0.8"/>
    <path d="M 356.658857 109.531355 
L 209.966947 71.847154 
L 118.271231 139.676469 
" style="fill: none; stroke: #b0b0b0; stroke-width: 0.8"/>
   </g>
   <g id="xtick_11">
    <g id="line2d_14">
     <path d="M 351.330456 199.601652 
L 354.897826 200.627239 
" style="fill: none; stroke: #000000; stroke-width: 0.8; stroke-linecap: square"/>
    </g>
    <g id="text_11">
     <!-- 26 -->
     <g transform="translate(364.472841 204.954926)scale(0.1 -0.1)">
      <use xlink:href="#DejaVuSans-32"/>
      <use xlink:href="#DejaVuSans-36" x="63.623047"/>
     </g>
    </g>
   </g>
   <g id="xtick_12">
    <g id="line2d_15">
     <path d="M 351.992687 184.984188 
L 355.582052 185.998317 
" style="fill: none; stroke: #000000; stroke-width: 0.8; stroke-linecap: square"/>
    </g>
    <g id="text_12">
     <!-- 28 -->
     <g transform="translate(365.248795 190.362597)scale(0.1 -0.1)">
      <use xlink:href="#DejaVuSans-32"/>
      <use xlink:href="#DejaVuSans-38" x="63.623047"/>
     </g>
    </g>
   </g>
   <g id="xtick_13">
    <g id="line2d_16">
     <path d="M 352.662826 170.192169 
L 356.274457 171.194492 
" style="fill: none; stroke: #000000; stroke-width: 0.8; stroke-linecap: square"/>
    </g>
    <g id="text_13">
     <!-- 30 -->
     <g transform="translate(366.033991 175.596473)scale(0.1 -0.1)">
      <defs>
       <path id="DejaVuSans-33" d="M 2597 2516 
Q 3050 2419 3304 2112 
Q 3559 1806 3559 1356 
Q 3559 666 3084 287 
Q 2609 -91 1734 -91 
Q 1441 -91 1130 -33 
Q 819 25 488 141 
L 488 750 
Q 750 597 1062 519 
Q 1375 441 1716 441 
Q 2309 441 2620 675 
Q 2931 909 2931 1356 
Q 2931 1769 2642 2001 
Q 2353 2234 1838 2234 
L 1294 2234 
L 1294 2753 
L 1863 2753 
Q 2328 2753 2575 2939 
Q 2822 3125 2822 3475 
Q 2822 3834 2567 4026 
Q 2313 4219 1838 4219 
Q 1578 4219 1281 4162 
Q 984 4106 628 3988 
L 628 4550 
Q 988 4650 1302 4700 
Q 1616 4750 1894 4750 
Q 2613 4750 3031 4423 
Q 3450 4097 3450 3541 
Q 3450 3153 3228 2886 
Q 3006 2619 2597 2516 
z
" transform="scale(0.015625)"/>
      </defs>
      <use xlink:href="#DejaVuSans-33"/>
      <use xlink:href="#DejaVuSans-30" x="63.623047"/>
     </g>
    </g>
   </g>
   <g id="xtick_14">
    <g id="line2d_17">
     <path d="M 353.341016 155.22245 
L 356.975191 156.212608 
" style="fill: none; stroke: #000000; stroke-width: 0.8; stroke-linecap: square"/>
    </g>
    <g id="text_14">
     <!-- 32 -->
     <g transform="translate(366.828594 160.653431)scale(0.1 -0.1)">
      <use xlink:href="#DejaVuSans-33"/>
      <use xlink:href="#DejaVuSans-32" x="63.623047"/>
     </g>
    </g>
   </g>
   <g id="xtick_15">
    <g id="line2d_18">
     <path d="M 354.027402 140.071808 
L 357.684405 141.049434 
" style="fill: none; stroke: #000000; stroke-width: 0.8; stroke-linecap: square"/>
    </g>
    <g id="text_15">
     <!-- 34 -->
     <g transform="translate(367.632775 145.530273)scale(0.1 -0.1)">
      <use xlink:href="#DejaVuSans-33"/>
      <use xlink:href="#DejaVuSans-34" x="63.623047"/>
     </g>
    </g>
   </g>
   <g id="xtick_16">
    <g id="line2d_19">
     <path d="M 354.722134 124.736945 
L 358.402252 125.701659 
" style="fill: none; stroke: #000000; stroke-width: 0.8; stroke-linecap: square"/>
    </g>
    <g id="text_16">
     <!-- 36 -->
     <g transform="translate(368.446708 130.223723)scale(0.1 -0.1)">
      <use xlink:href="#DejaVuSans-33"/>
      <use xlink:href="#DejaVuSans-36" x="63.623047"/>
     </g>
    </g>
   </g>
   <g id="xtick_17">
    <g id="line2d_20">
     <path d="M 355.425366 109.214479 
L 359.128892 110.165891 
" style="fill: none; stroke: #000000; stroke-width: 0.8; stroke-linecap: square"/>
    </g>
    <g id="text_17">
     <!-- 38 -->
     <g transform="translate(369.270571 114.730423)scale(0.1 -0.1)">
      <use xlink:href="#DejaVuSans-33"/>
      <use xlink:href="#DejaVuSans-38" x="63.623047"/>
     </g>
    </g>
   </g>
  </g>
  <g id="axes_1">
   <g id="line2d_21">
    <path d="M 149.951105 184.213309 
L 243.088154 179.316368 
L 244.026305 178.492841 
L 258.798771 182.789731 
L 260.449512 183.269885 
L 320.910665 145.704016 
" clip-path="url(#p30efcabfeb)" style="fill: none; stroke: #00bfbf; stroke-width: 1.5; stroke-linecap: square"/>
   </g>
   <g id="line2d_22">
    <path d="M 137.920278 154.183918 
L 249.431749 191.184332 
L 251.093558 191.674106 
L 276.144939 188.94423 
L 277.061023 188.101701 
L 316.068673 167.677295 
" clip-path="url(#p30efcabfeb)" style="fill: none; stroke: #008000; stroke-width: 1.5; stroke-linecap: square"/>
   </g>
   <g id="line2d_23">
    <path d="M 145.887833 218.23159 
L 239.876149 199.747935 
L 241.549139 200.247622 
L 292.959523 193.841515 
L 293.864097 192.989237 
L 324.041043 185.205271 
" clip-path="url(#p30efcabfeb)" style="fill: none; stroke: #0000ff; stroke-width: 1.5; stroke-linecap: square"/>
   </g>
   <g id="line2d_24">
    <path d="M 128.800741 201.22946 
L 210.773139 169.904548 
L 211.732144 169.099388 
L 267.982742 174.559177 
L 269.622528 175.029991 
L 304.239355 136.057653 
" clip-path="url(#p30efcabfeb)" style="fill: none; stroke: #ff0000; stroke-width: 1.5; stroke-linecap: square"/>
   </g>
   <g id="Path3DCollection_1">
    <defs>
     <path id="m391c436fb6" d="M 0 -3.535534 
L -3.535534 3.535534 
L 3.535534 3.535534 
z
" style="stroke: #008000"/>
    </defs>
    <g clip-path="url(#p30efcabfeb)">
     <use xlink:href="#m391c436fb6" x="320.910665" y="145.704016" style="fill: #008000; stroke: #008000"/>
    </g>
   </g>
   <g id="Path3DCollection_2">
    <g clip-path="url(#p30efcabfeb)">
     <use xlink:href="#m391c436fb6" x="320.910665" y="145.704016" style="fill: #008000; stroke: #008000"/>
    </g>
   </g>
   <g id="Path3DCollection_3">
    <g clip-path="url(#p30efcabfeb)">
     <use xlink:href="#m391c436fb6" x="320.910665" y="145.704016" style="fill: #008000; stroke: #008000"/>
    </g>
   </g>
   <g id="Path3DCollection_4">
    <g clip-path="url(#p30efcabfeb)">
     <use xlink:href="#m391c436fb6" x="320.910665" y="145.704016" style="fill: #008000; stroke: #008000"/>
    </g>
   </g>
   <g id="Path3DCollection_5">
    <g clip-path="url(#p30efcabfeb)">
     <use xlink:href="#m391c436fb6" x="320.910665" y="145.704016" style="fill: #008000; stroke: #008000"/>
    </g>
   </g>
   <g id="Path3DCollection_6">
    <g clip-path="url(#p30efcabfeb)">
     <use xlink:href="#m391c436fb6" x="320.910665" y="145.704016" style="fill: #008000; stroke: #008000"/>
    </g>
   </g>
   <g id="Path3DCollection_7">
    <defs>
     <path id="m4d051d1fad" d="M 0 3.535534 
C 0.937635 3.535534 1.836992 3.163008 2.5 2.5 
C 3.163008 1.836992 3.535534 0.937635 3.535534 0 
C 3.535534 -0.937635 3.163008 -1.836992 2.5 -2.5 
C 1.836992 -3.163008 0.937635 -3.535534 0 -3.535534 
C -0.937635 -3.535534 -1.836992 -3.163008 -2.5 -2.5 
C -3.163008 -1.836992 -3.535534 -0.937635 -3.535534 0 
C -3.535534 0.937635 -3.163008 1.836992 -2.5 2.5 
C -1.836992 3.163008 -0.937635 3.535534 0 3.535534 
z
" style="stroke: #00ffff"/>
    </defs>
    <g clip-path="url(#p30efcabfeb)">
     <use xlink:href="#m4d051d1fad" x="145.887833" y="218.23159" style="fill: #00ffff; stroke: #00ffff"/>
    </g>
   </g>
   <g id="Path3DCollection_8">
    <g clip-path="url(#p30efcabfeb)">
     <use xlink:href="#m4d051d1fad" x="145.887833" y="218.23159" style="fill: #00ffff; stroke: #00ffff"/>
    </g>
   </g>
   <g id="Path3DCollection_9">
    <g clip-path="url(#p30efcabfeb)">
     <use xlink:href="#m4d051d1fad" x="145.887833" y="218.23159" style="fill: #00ffff; stroke: #00ffff"/>
    </g>
   </g>
   <g id="Path3DCollection_10">
    <g clip-path="url(#p30efcabfeb)">
     <use xlink:href="#m4d051d1fad" x="145.887833" y="218.23159" style="fill: #00ffff; stroke: #00ffff"/>
    </g>
   </g>
   <g id="Path3DCollection_11">
    <g clip-path="url(#p30efcabfeb)">
     <use xlink:href="#m4d051d1fad" x="145.887833" y="218.23159" style="fill: #00ffff; stroke: #00ffff"/>
    </g>
   </g>
   <g id="Path3DCollection_12">
    <g clip-path="url(#p30efcabfeb)">
     <use xlink:href="#m4d051d1fad" x="145.887833" y="218.23159" style="fill: #00ffff; stroke: #00ffff"/>
    </g>
   </g>
   <g id="Path3DCollection_13">
    <g clip-path="url(#p30efcabfeb)">
     <use xlink:href="#m4d051d1fad" x="149.951105" y="184.213309" style="fill: #00ffff; stroke: #00ffff"/>
    </g>
   </g>
   <g id="Path3DCollection_14">
    <g clip-path="url(#p30efcabfeb)">
     <use xlink:href="#m4d051d1fad" x="149.951105" y="184.213309" style="fill: #00ffff; stroke: #00ffff"/>
    </g>
   </g>
   <g id="Path3DCollection_15">
    <g clip-path="url(#p30efcabfeb)">
     <use xlink:href="#m4d051d1fad" x="149.951105" y="184.213309" style="fill: #00ffff; stroke: #00ffff"/>
    </g>
   </g>
   <g id="Path3DCollection_16">
    <g clip-path="url(#p30efcabfeb)">
     <use xlink:href="#m4d051d1fad" x="149.951105" y="184.213309" style="fill: #00ffff; stroke: #00ffff"/>
    </g>
   </g>
   <g id="Path3DCollection_17">
    <g clip-path="url(#p30efcabfeb)">
     <use xlink:href="#m4d051d1fad" x="149.951105" y="184.213309" style="fill: #00ffff; stroke: #00ffff"/>
    </g>
   </g>
   <g id="Path3DCollection_18">
    <g clip-path="url(#p30efcabfeb)">
     <use xlink:href="#m4d051d1fad" x="149.951105" y="184.213309" style="fill: #00ffff; stroke: #00ffff"/>
    </g>
   </g>
   <g id="Path3DCollection_19">
    <g clip-path="url(#p30efcabfeb)">
     <use xlink:href="#m391c436fb6" x="324.041043" y="185.205271" style="fill: #008000; stroke: #008000"/>
    </g>
   </g>
   <g id="Path3DCollection_20">
    <g clip-path="url(#p30efcabfeb)">
     <use xlink:href="#m391c436fb6" x="324.041043" y="185.205271" style="fill: #008000; stroke: #008000"/>
    </g>
   </g>
   <g id="Path3DCollection_21">
    <g clip-path="url(#p30efcabfeb)">
     <use xlink:href="#m391c436fb6" x="324.041043" y="185.205271" style="fill: #008000; stroke: #008000"/>
    </g>
   </g>
   <g id="Path3DCollection_22">
    <g clip-path="url(#p30efcabfeb)">
     <use xlink:href="#m391c436fb6" x="324.041043" y="185.205271" style="fill: #008000; stroke: #008000"/>
    </g>
   </g>
   <g id="Path3DCollection_23">
    <g clip-path="url(#p30efcabfeb)">
     <use xlink:href="#m391c436fb6" x="324.041043" y="185.205271" style="fill: #008000; stroke: #008000"/>
    </g>
   </g>
   <g id="Path3DCollection_24">
    <g clip-path="url(#p30efcabfeb)">
     <use xlink:href="#m391c436fb6" x="324.041043" y="185.205271" style="fill: #008000; stroke: #008000"/>
    </g>
   </g>
   <g id="Path3DCollection_25">
    <g clip-path="url(#p30efcabfeb)">
     <use xlink:href="#m391c436fb6" x="304.239355" y="136.057653" style="fill: #008000; stroke: #008000"/>
    </g>
   </g>
   <g id="Path3DCollection_26">
    <g clip-path="url(#p30efcabfeb)">
     <use xlink:href="#m391c436fb6" x="304.239355" y="136.057653" style="fill: #008000; stroke: #008000"/>
    </g>
   </g>
   <g id="Path3DCollection_27">
    <g clip-path="url(#p30efcabfeb)">
     <use xlink:href="#m391c436fb6" x="304.239355" y="136.057653" style="fill: #008000; stroke: #008000"/>
    </g>
   </g>
   <g id="Path3DCollection_28">
    <g clip-path="url(#p30efcabfeb)">
     <use xlink:href="#m391c436fb6" x="304.239355" y="136.057653" style="fill: #008000; stroke: #008000"/>
    </g>
   </g>
   <g id="Path3DCollection_29">
    <g clip-path="url(#p30efcabfeb)">
     <use xlink:href="#m391c436fb6" x="304.239355" y="136.057653" style="fill: #008000; stroke: #008000"/>
    </g>
   </g>
   <g id="Path3DCollection_30">
    <g clip-path="url(#p30efcabfeb)">
     <use xlink:href="#m391c436fb6" x="304.239355" y="136.057653" style="fill: #008000; stroke: #008000"/>
    </g>
   </g>
   <g id="Path3DCollection_31">
    <g clip-path="url(#p30efcabfeb)">
     <use xlink:href="#m391c436fb6" x="316.068673" y="167.677295" style="fill: #008000; stroke: #008000"/>
    </g>
   </g>
   <g id="Path3DCollection_32">
    <g clip-path="url(#p30efcabfeb)">
     <use xlink:href="#m391c436fb6" x="316.068673" y="167.677295" style="fill: #008000; stroke: #008000"/>
    </g>
   </g>
   <g id="Path3DCollection_33">
    <g clip-path="url(#p30efcabfeb)">
     <use xlink:href="#m391c436fb6" x="316.068673" y="167.677295" style="fill: #008000; stroke: #008000"/>
    </g>
   </g>
   <g id="Path3DCollection_34">
    <g clip-path="url(#p30efcabfeb)">
     <use xlink:href="#m391c436fb6" x="316.068673" y="167.677295" style="fill: #008000; stroke: #008000"/>
    </g>
   </g>
   <g id="Path3DCollection_35">
    <g clip-path="url(#p30efcabfeb)">
     <use xlink:href="#m391c436fb6" x="316.068673" y="167.677295" style="fill: #008000; stroke: #008000"/>
    </g>
   </g>
   <g id="Path3DCollection_36">
    <g clip-path="url(#p30efcabfeb)">
     <use xlink:href="#m391c436fb6" x="316.068673" y="167.677295" style="fill: #008000; stroke: #008000"/>
    </g>
   </g>
   <g id="Path3DCollection_37">
    <g clip-path="url(#p30efcabfeb)">
     <use xlink:href="#m4d051d1fad" x="128.800741" y="201.22946" style="fill: #00ffff; stroke: #00ffff"/>
    </g>
   </g>
   <g id="Path3DCollection_38">
    <g clip-path="url(#p30efcabfeb)">
     <use xlink:href="#m4d051d1fad" x="128.800741" y="201.22946" style="fill: #00ffff; stroke: #00ffff"/>
    </g>
   </g>
   <g id="Path3DCollection_39">
    <g clip-path="url(#p30efcabfeb)">
     <use xlink:href="#m4d051d1fad" x="128.800741" y="201.22946" style="fill: #00ffff; stroke: #00ffff"/>
    </g>
   </g>
   <g id="Path3DCollection_40">
    <g clip-path="url(#p30efcabfeb)">
     <use xlink:href="#m4d051d1fad" x="128.800741" y="201.22946" style="fill: #00ffff; stroke: #00ffff"/>
    </g>
   </g>
   <g id="Path3DCollection_41">
    <g clip-path="url(#p30efcabfeb)">
     <use xlink:href="#m4d051d1fad" x="128.800741" y="201.22946" style="fill: #00ffff; stroke: #00ffff"/>
    </g>
   </g>
   <g id="Path3DCollection_42">
    <g clip-path="url(#p30efcabfeb)">
     <use xlink:href="#m4d051d1fad" x="128.800741" y="201.22946" style="fill: #00ffff; stroke: #00ffff"/>
    </g>
   </g>
   <g id="Path3DCollection_43">
    <g clip-path="url(#p30efcabfeb)">
     <use xlink:href="#m4d051d1fad" x="137.920278" y="154.183918" style="fill: #00ffff; stroke: #00ffff"/>
    </g>
   </g>
   <g id="Path3DCollection_44">
    <g clip-path="url(#p30efcabfeb)">
     <use xlink:href="#m4d051d1fad" x="137.920278" y="154.183918" style="fill: #00ffff; stroke: #00ffff"/>
    </g>
   </g>
   <g id="Path3DCollection_45">
    <g clip-path="url(#p30efcabfeb)">
     <use xlink:href="#m4d051d1fad" x="137.920278" y="154.183918" style="fill: #00ffff; stroke: #00ffff"/>
    </g>
   </g>
   <g id="Path3DCollection_46">
    <g clip-path="url(#p30efcabfeb)">
     <use xlink:href="#m4d051d1fad" x="137.920278" y="154.183918" style="fill: #00ffff; stroke: #00ffff"/>
    </g>
   </g>
   <g id="Path3DCollection_47">
    <g clip-path="url(#p30efcabfeb)">
     <use xlink:href="#m4d051d1fad" x="137.920278" y="154.183918" style="fill: #00ffff; stroke: #00ffff"/>
    </g>
   </g>
   <g id="Path3DCollection_48">
    <g clip-path="url(#p30efcabfeb)">
     <use xlink:href="#m4d051d1fad" x="137.920278" y="154.183918" style="fill: #00ffff; stroke: #00ffff"/>
    </g>
   </g>
  </g>
 </g>
 <defs>
  <clipPath id="p30efcabfeb">
   <rect x="103.104" y="41.472" width="266.112" height="266.112"/>
  </clipPath>
 </defs>
</svg>
