<?xml version="1.0" encoding="utf-8" standalone="no"?>
<!DOCTYPE svg PUBLIC "-//W3C//DTD SVG 1.1//EN"
  "http://www.w3.org/Graphics/SVG/1.1/DTD/svg11.dtd">
<svg xmlns:xlink="http://www.w3.org/1999/xlink" width="460.8pt" height="345.6pt" viewBox="0 0 460.8 345.6" xmlns="http://www.w3.org/2000/svg" version="1.1">
 <metadata>
  <rdf:RDF xmlns:dc="http://purl.org/dc/elements/1.1/" xmlns:cc="http://creativecommons.org/ns#" xmlns:rdf="http://www.w3.org/1999/02/22-rdf-syntax-ns#">
   <cc:Work>
    <dc:type rdf:resource="http://purl.org/dc/dcmitype/StillImage"/>
    <dc:date>2022-02-11T11:40:28.140676</dc:date>
    <dc:format>image/svg+xml</dc:format>
    <dc:creator>
     <cc:Agent>
      <dc:title>Matplotlib v3.5.0, https://matplotlib.org/</dc:title>
     </cc:Agent>
    </dc:creator>
   </cc:Work>
  </rdf:RDF>
 </metadata>
 <defs>
  <style type="text/css">*{stroke-linejoin: round; stroke-linecap: butt}</style>
 </defs>
 <g id="figure_1">
  <g id="patch_1">
   <path d="M 0 345.6 
L 460.8 345.6 
L 460.8 0 
L 0 0 
z
" style="fill: #ffffff"/>
  </g>
  <g id="patch_2">
   <path d="M 57.6 345.6 
L 403.2 345.6 
L 403.2 0 
L 57.6 0 
z
" style="fill: #ffffff"/>
  </g>
  <g id="pane3d_1">
   <g id="patch_3">
    <path d="M 83.695183 260.386116 
L 197.82359 164.721422 
L 196.237096 26.755832 
L 76.647057 114.027196 
" style="fill: #f2f2f2; opacity: 0.5; stroke: #f2f2f2; stroke-linejoin: miter"/>
   </g>
  </g>
  <g id="pane3d_2">
   <g id="patch_4">
    <path d="M 197.82359 164.721422 
L 380.958962 217.951644 
L 387.494418 75.233988 
L 196.237096 26.755832 
" style="fill: #e6e6e6; opacity: 0.5; stroke: #e6e6e6; stroke-linejoin: miter"/>
   </g>
  </g>
  <g id="pane3d_3">
   <g id="patch_5">
    <path d="M 83.695183 260.386116 
L 277.827622 323.78977 
L 380.958962 217.951644 
L 197.82359 164.721422 
" style="fill: #ececec; opacity: 0.5; stroke: #ececec; stroke-linejoin: miter"/>
   </g>
  </g>
  <g id="axis3d_1">
   <g id="line2d_1">
    <path d="M 83.695183 260.386116 
L 277.827622 323.78977 
" style="fill: none; stroke: #000000; stroke-width: 0.8; stroke-linecap: square"/>
   </g>
   <g id="Line3DCollection_1">
    <path d="M 89.102957 262.152295 
L 202.94697 166.210586 
L 201.576726 28.109273 
" style="fill: none; stroke: #b0b0b0; stroke-width: 0.8"/>
    <path d="M 123.868794 273.506817 
L 235.854344 175.775461 
L 235.888099 36.806206 
" style="fill: none; stroke: #b0b0b0; stroke-width: 0.8"/>
    <path d="M 159.314517 285.08339 
L 269.35166 185.511808 
L 270.841313 45.665827 
" style="fill: none; stroke: #b0b0b0; stroke-width: 0.8"/>
    <path d="M 195.460268 296.888592 
L 303.454927 195.424281 
L 306.454549 54.692744 
" style="fill: none; stroke: #b0b0b0; stroke-width: 0.8"/>
    <path d="M 232.326992 308.929264 
L 338.180737 205.517703 
L 342.74668 63.891741 
" style="fill: none; stroke: #b0b0b0; stroke-width: 0.8"/>
    <path d="M 269.936476 321.212521 
L 373.546294 215.797075 
L 379.737306 73.267786 
" style="fill: none; stroke: #b0b0b0; stroke-width: 0.8"/>
   </g>
   <g id="xtick_1">
    <g id="line2d_2">
     <path d="M 90.094162 261.316959 
L 87.116301 263.826543 
" style="fill: none; stroke: #000000; stroke-width: 0.8; stroke-linecap: square"/>
    </g>
    <g id="text_1">
     <!-- 0 -->
     <g transform="translate(78.394281 285.414309)scale(0.1 -0.1)">
      <defs>
       <path id="DejaVuSans-30" d="M 2034 4250 
Q 1547 4250 1301 3770 
Q 1056 3291 1056 2328 
Q 1056 1369 1301 889 
Q 1547 409 2034 409 
Q 2525 409 2770 889 
Q 3016 1369 3016 2328 
Q 3016 3291 2770 3770 
Q 2525 4250 2034 4250 
z
M 2034 4750 
Q 2819 4750 3233 4129 
Q 3647 3509 3647 2328 
Q 3647 1150 3233 529 
Q 2819 -91 2034 -91 
Q 1250 -91 836 529 
Q 422 1150 422 2328 
Q 422 3509 836 4129 
Q 1250 4750 2034 4750 
z
" transform="scale(0.015625)"/>
      </defs>
      <use xlink:href="#DejaVuSans-30"/>
     </g>
    </g>
   </g>
   <g id="xtick_2">
    <g id="line2d_3">
     <path d="M 124.844583 272.655231 
L 121.912994 275.213671 
" style="fill: none; stroke: #000000; stroke-width: 0.8; stroke-linecap: square"/>
    </g>
    <g id="text_2">
     <!-- 20 -->
     <g transform="translate(110.005979 296.953675)scale(0.1 -0.1)">
      <defs>
       <path id="DejaVuSans-32" d="M 1228 531 
L 3431 531 
L 3431 0 
L 469 0 
L 469 531 
Q 828 903 1448 1529 
Q 2069 2156 2228 2338 
Q 2531 2678 2651 2914 
Q 2772 3150 2772 3378 
Q 2772 3750 2511 3984 
Q 2250 4219 1831 4219 
Q 1534 4219 1204 4116 
Q 875 4013 500 3803 
L 500 4441 
Q 881 4594 1212 4672 
Q 1544 4750 1819 4750 
Q 2544 4750 2975 4387 
Q 3406 4025 3406 3419 
Q 3406 3131 3298 2873 
Q 3191 2616 2906 2266 
Q 2828 2175 2409 1742 
Q 1991 1309 1228 531 
z
" transform="scale(0.015625)"/>
      </defs>
      <use xlink:href="#DejaVuSans-32"/>
      <use xlink:href="#DejaVuSans-30" x="63.623047"/>
     </g>
    </g>
   </g>
   <g id="xtick_3">
    <g id="line2d_4">
     <path d="M 160.274096 284.215075 
L 157.391167 286.823811 
" style="fill: none; stroke: #000000; stroke-width: 0.8; stroke-linecap: square"/>
    </g>
    <g id="text_3">
     <!-- 40 -->
     <g transform="translate(145.481325 308.719363)scale(0.1 -0.1)">
      <defs>
       <path id="DejaVuSans-34" d="M 2419 4116 
L 825 1625 
L 2419 1625 
L 2419 4116 
z
M 2253 4666 
L 3047 4666 
L 3047 1625 
L 3713 1625 
L 3713 1100 
L 3047 1100 
L 3047 0 
L 2419 0 
L 2419 1100 
L 313 1100 
L 313 1709 
L 2253 4666 
z
" transform="scale(0.015625)"/>
      </defs>
      <use xlink:href="#DejaVuSans-34"/>
      <use xlink:href="#DejaVuSans-30" x="63.623047"/>
     </g>
    </g>
   </g>
   <g id="xtick_4">
    <g id="line2d_5">
     <path d="M 196.402804 296.003051 
L 193.57104 298.663581 
" style="fill: none; stroke: #000000; stroke-width: 0.8; stroke-linecap: square"/>
    </g>
    <g id="text_4">
     <!-- 60 -->
     <g transform="translate(181.659343 320.718098)scale(0.1 -0.1)">
      <defs>
       <path id="DejaVuSans-36" d="M 2113 2584 
Q 1688 2584 1439 2293 
Q 1191 2003 1191 1497 
Q 1191 994 1439 701 
Q 1688 409 2113 409 
Q 2538 409 2786 701 
Q 3034 994 3034 1497 
Q 3034 2003 2786 2293 
Q 2538 2584 2113 2584 
z
M 3366 4563 
L 3366 3988 
Q 3128 4100 2886 4159 
Q 2644 4219 2406 4219 
Q 1781 4219 1451 3797 
Q 1122 3375 1075 2522 
Q 1259 2794 1537 2939 
Q 1816 3084 2150 3084 
Q 2853 3084 3261 2657 
Q 3669 2231 3669 1497 
Q 3669 778 3244 343 
Q 2819 -91 2113 -91 
Q 1303 -91 875 529 
Q 447 1150 447 2328 
Q 447 3434 972 4092 
Q 1497 4750 2381 4750 
Q 2619 4750 2861 4703 
Q 3103 4656 3366 4563 
z
" transform="scale(0.015625)"/>
      </defs>
      <use xlink:href="#DejaVuSans-36"/>
      <use xlink:href="#DejaVuSans-30" x="63.623047"/>
     </g>
    </g>
   </g>
   <g id="xtick_5">
    <g id="line2d_6">
     <path d="M 233.25161 308.025978 
L 230.473637 310.73986 
" style="fill: none; stroke: #000000; stroke-width: 0.8; stroke-linecap: square"/>
    </g>
    <g id="text_5">
     <!-- 80 -->
     <g transform="translate(218.561119 332.956874)scale(0.1 -0.1)">
      <defs>
       <path id="DejaVuSans-38" d="M 2034 2216 
Q 1584 2216 1326 1975 
Q 1069 1734 1069 1313 
Q 1069 891 1326 650 
Q 1584 409 2034 409 
Q 2484 409 2743 651 
Q 3003 894 3003 1313 
Q 3003 1734 2745 1975 
Q 2488 2216 2034 2216 
z
M 1403 2484 
Q 997 2584 770 2862 
Q 544 3141 544 3541 
Q 544 4100 942 4425 
Q 1341 4750 2034 4750 
Q 2731 4750 3128 4425 
Q 3525 4100 3525 3541 
Q 3525 3141 3298 2862 
Q 3072 2584 2669 2484 
Q 3125 2378 3379 2068 
Q 3634 1759 3634 1313 
Q 3634 634 3220 271 
Q 2806 -91 2034 -91 
Q 1263 -91 848 271 
Q 434 634 434 1313 
Q 434 1759 690 2068 
Q 947 2378 1403 2484 
z
M 1172 3481 
Q 1172 3119 1398 2916 
Q 1625 2713 2034 2713 
Q 2441 2713 2670 2916 
Q 2900 3119 2900 3481 
Q 2900 3844 2670 4047 
Q 2441 4250 2034 4250 
Q 1625 4250 1398 4047 
Q 1172 3844 1172 3481 
z
" transform="scale(0.015625)"/>
      </defs>
      <use xlink:href="#DejaVuSans-38"/>
      <use xlink:href="#DejaVuSans-30" x="63.623047"/>
     </g>
    </g>
   </g>
   <g id="xtick_6">
    <g id="line2d_7">
     <path d="M 270.84226 320.290952 
L 268.120832 323.059807 
" style="fill: none; stroke: #000000; stroke-width: 0.8; stroke-linecap: square"/>
    </g>
    <g id="text_6">
     <!-- 100 -->
     <g transform="translate(253.027342 345.442966)scale(0.1 -0.1)">
      <defs>
       <path id="DejaVuSans-31" d="M 794 531 
L 1825 531 
L 1825 4091 
L 703 3866 
L 703 4441 
L 1819 4666 
L 2450 4666 
L 2450 531 
L 3481 531 
L 3481 0 
L 794 0 
L 794 531 
z
" transform="scale(0.015625)"/>
      </defs>
      <use xlink:href="#DejaVuSans-31"/>
      <use xlink:href="#DejaVuSans-30" x="63.623047"/>
      <use xlink:href="#DejaVuSans-30" x="127.246094"/>
     </g>
    </g>
   </g>
  </g>
  <g id="axis3d_2">
   <g id="line2d_8">
    <path d="M 380.958962 217.951644 
L 277.827622 323.78977 
" style="fill: none; stroke: #000000; stroke-width: 0.8; stroke-linecap: square"/>
   </g>
   <g id="Line3DCollection_2">
    <path d="M 80.469569 111.2377 
L 87.329738 257.33956 
L 281.12603 320.404792 
" style="fill: none; stroke: #b0b0b0; stroke-width: 0.8"/>
    <path d="M 104.29305 93.852409 
L 110.00165 238.335514 
L 301.680135 299.311224 
" style="fill: none; stroke: #b0b0b0; stroke-width: 0.8"/>
    <path d="M 127.319302 77.048899 
L 131.947458 219.940102 
L 321.541609 278.928465 
" style="fill: none; stroke: #b0b0b0; stroke-width: 0.8"/>
    <path d="M 149.587686 60.798447 
L 153.201494 202.124548 
L 340.744884 259.221181 
" style="fill: none; stroke: #b0b0b0; stroke-width: 0.8"/>
    <path d="M 171.135012 45.07419 
L 173.795959 184.861859 
L 359.322143 240.156343 
" style="fill: none; stroke: #b0b0b0; stroke-width: 0.8"/>
    <path d="M 191.995743 29.850979 
L 193.761087 168.126692 
L 377.303508 221.703039 
" style="fill: none; stroke: #b0b0b0; stroke-width: 0.8"/>
   </g>
   <g id="xtick_7">
    <g id="line2d_9">
     <path d="M 279.492637 319.873253 
L 284.397053 321.469249 
" style="fill: none; stroke: #000000; stroke-width: 0.8; stroke-linecap: square"/>
    </g>
    <g id="text_7">
     <!-- 0 -->
     <g transform="translate(290.863225 341.469596)scale(0.1 -0.1)">
      <use xlink:href="#DejaVuSans-30"/>
     </g>
    </g>
   </g>
   <g id="xtick_8">
    <g id="line2d_10">
     <path d="M 300.065999 298.797743 
L 304.912523 300.339493 
" style="fill: none; stroke: #000000; stroke-width: 0.8; stroke-linecap: square"/>
    </g>
    <g id="text_8">
     <!-- 20 -->
     <g transform="translate(308.023929 320.135553)scale(0.1 -0.1)">
      <use xlink:href="#DejaVuSans-32"/>
      <use xlink:href="#DejaVuSans-30" x="63.623047"/>
     </g>
    </g>
   </g>
   <g id="xtick_9">
    <g id="line2d_11">
     <path d="M 319.94637 278.432138 
L 324.736088 279.922362 
" style="fill: none; stroke: #000000; stroke-width: 0.8; stroke-linecap: square"/>
    </g>
    <g id="text_9">
     <!-- 40 -->
     <g transform="translate(327.680096 299.520743)scale(0.1 -0.1)">
      <use xlink:href="#DejaVuSans-34"/>
      <use xlink:href="#DejaVuSans-30" x="63.623047"/>
     </g>
    </g>
   </g>
   <g id="xtick_10">
    <g id="line2d_12">
     <path d="M 339.168185 258.741163 
L 343.902168 260.1824 
" style="fill: none; stroke: #000000; stroke-width: 0.8; stroke-linecap: square"/>
    </g>
    <g id="text_10">
     <!-- 60 -->
     <g transform="translate(346.68458 279.589399)scale(0.1 -0.1)">
      <use xlink:href="#DejaVuSans-36"/>
      <use xlink:href="#DejaVuSans-30" x="63.623047"/>
     </g>
    </g>
   </g>
   <g id="xtick_11">
    <g id="line2d_13">
     <path d="M 357.763634 239.691843 
L 362.442941 241.08647 
" style="fill: none; stroke: #000000; stroke-width: 0.8; stroke-linecap: square"/>
    </g>
    <g id="text_11">
     <!-- 80 -->
     <g transform="translate(365.069262 260.308086)scale(0.1 -0.1)">
      <use xlink:href="#DejaVuSans-38"/>
      <use xlink:href="#DejaVuSans-30" x="63.623047"/>
     </g>
    </g>
   </g>
   <g id="xtick_12">
    <g id="line2d_14">
     <path d="M 375.762842 221.253316 
L 380.388517 222.603558 
" style="fill: none; stroke: #000000; stroke-width: 0.8; stroke-linecap: square"/>
    </g>
    <g id="text_12">
     <!-- 100 -->
     <g transform="translate(379.682726 241.645513)scale(0.1 -0.1)">
      <use xlink:href="#DejaVuSans-31"/>
      <use xlink:href="#DejaVuSans-30" x="63.623047"/>
      <use xlink:href="#DejaVuSans-30" x="127.246094"/>
     </g>
    </g>
   </g>
  </g>
  <g id="axis3d_3">
   <g id="line2d_15">
    <path d="M 380.958962 217.951644 
L 387.494418 75.233988 
" style="fill: none; stroke: #000000; stroke-width: 0.8; stroke-linecap: square"/>
   </g>
   <g id="Line3DCollection_3">
    <path d="M 381.162337 213.510449 
L 197.774119 160.419315 
L 83.476212 255.839044 
" style="fill: none; stroke: #b0b0b0; stroke-width: 0.8"/>
    <path d="M 381.948595 196.340574 
L 197.582924 143.792482 
L 82.629444 238.255356 
" style="fill: none; stroke: #b0b0b0; stroke-width: 0.8"/>
    <path d="M 382.743363 178.984883 
L 197.389758 126.994299 
L 81.773164 220.474129 
" style="fill: none; stroke: #b0b0b0; stroke-width: 0.8"/>
    <path d="M 383.546778 161.440346 
L 197.194592 110.022102 
L 80.907209 202.492015 
" style="fill: none; stroke: #b0b0b0; stroke-width: 0.8"/>
    <path d="M 384.358983 143.703862 
L 196.997393 92.873175 
L 80.031415 184.305589 
" style="fill: none; stroke: #b0b0b0; stroke-width: 0.8"/>
    <path d="M 385.180123 125.772264 
L 196.79813 75.544742 
L 79.145613 165.911349 
" style="fill: none; stroke: #b0b0b0; stroke-width: 0.8"/>
    <path d="M 386.010346 107.642316 
L 196.59677 58.033971 
L 78.249632 147.305715 
" style="fill: none; stroke: #b0b0b0; stroke-width: 0.8"/>
    <path d="M 386.849804 89.310707 
L 196.39328 40.337967 
L 77.343294 128.485019 
" style="fill: none; stroke: #b0b0b0; stroke-width: 0.8"/>
   </g>
   <g id="xtick_13">
    <g id="line2d_16">
     <path d="M 379.623104 213.064839 
L 384.244468 214.40273 
" style="fill: none; stroke: #000000; stroke-width: 0.8; stroke-linecap: square"/>
    </g>
    <g id="text_13">
     <!-- 0 -->
     <g transform="translate(396.267247 218.508741)scale(0.1 -0.1)">
      <use xlink:href="#DejaVuSans-30"/>
     </g>
    </g>
   </g>
   <g id="xtick_14">
    <g id="line2d_17">
     <path d="M 380.400769 195.89941 
L 385.047955 197.223956 
" style="fill: none; stroke: #000000; stroke-width: 0.8; stroke-linecap: square"/>
    </g>
    <g id="text_14">
     <!-- 10 -->
     <g transform="translate(393.968612 201.364838)scale(0.1 -0.1)">
      <use xlink:href="#DejaVuSans-31"/>
      <use xlink:href="#DejaVuSans-30" x="63.623047"/>
     </g>
    </g>
   </g>
   <g id="xtick_15">
    <g id="line2d_18">
     <path d="M 381.186846 178.548289 
L 385.860145 179.859122 
" style="fill: none; stroke: #000000; stroke-width: 0.8; stroke-linecap: square"/>
    </g>
    <g id="text_15">
     <!-- 20 -->
     <g transform="translate(394.860758 184.035836)scale(0.1 -0.1)">
      <use xlink:href="#DejaVuSans-32"/>
      <use xlink:href="#DejaVuSans-30" x="63.623047"/>
     </g>
    </g>
   </g>
   <g id="xtick_16">
    <g id="line2d_19">
     <path d="M 381.981472 161.008447 
L 386.681179 162.305189 
" style="fill: none; stroke: #000000; stroke-width: 0.8; stroke-linecap: square"/>
    </g>
    <g id="text_16">
     <!-- 30 -->
     <g transform="translate(395.762588 166.518721)scale(0.1 -0.1)">
      <defs>
       <path id="DejaVuSans-33" d="M 2597 2516 
Q 3050 2419 3304 2112 
Q 3559 1806 3559 1356 
Q 3559 666 3084 287 
Q 2609 -91 1734 -91 
Q 1441 -91 1130 -33 
Q 819 25 488 141 
L 488 750 
Q 750 597 1062 519 
Q 1375 441 1716 441 
Q 2309 441 2620 675 
Q 2931 909 2931 1356 
Q 2931 1769 2642 2001 
Q 2353 2234 1838 2234 
L 1294 2234 
L 1294 2753 
L 1863 2753 
Q 2328 2753 2575 2939 
Q 2822 3125 2822 3475 
Q 2822 3834 2567 4026 
Q 2313 4219 1838 4219 
Q 1578 4219 1281 4162 
Q 984 4106 628 3988 
L 628 4550 
Q 988 4650 1302 4700 
Q 1616 4750 1894 4750 
Q 2613 4750 3031 4423 
Q 3450 4097 3450 3541 
Q 3450 3153 3228 2886 
Q 3006 2619 2597 2516 
z
" transform="scale(0.015625)"/>
      </defs>
      <use xlink:href="#DejaVuSans-33"/>
      <use xlink:href="#DejaVuSans-30" x="63.623047"/>
     </g>
    </g>
   </g>
   <g id="xtick_17">
    <g id="line2d_20">
     <path d="M 382.784789 143.276787 
L 387.511203 144.55905 
" style="fill: none; stroke: #000000; stroke-width: 0.8; stroke-linecap: square"/>
    </g>
    <g id="text_17">
     <!-- 40 -->
     <g transform="translate(396.674261 148.810412)scale(0.1 -0.1)">
      <use xlink:href="#DejaVuSans-34"/>
      <use xlink:href="#DejaVuSans-30" x="63.623047"/>
     </g>
    </g>
   </g>
   <g id="xtick_18">
    <g id="line2d_21">
     <path d="M 383.596939 125.350147 
L 388.350365 126.617533 
" style="fill: none; stroke: #000000; stroke-width: 0.8; stroke-linecap: square"/>
    </g>
    <g id="text_18">
     <!-- 50 -->
     <g transform="translate(397.595939 130.907763)scale(0.1 -0.1)">
      <defs>
       <path id="DejaVuSans-35" d="M 691 4666 
L 3169 4666 
L 3169 4134 
L 1269 4134 
L 1269 2991 
Q 1406 3038 1543 3061 
Q 1681 3084 1819 3084 
Q 2600 3084 3056 2656 
Q 3513 2228 3513 1497 
Q 3513 744 3044 326 
Q 2575 -91 1722 -91 
Q 1428 -91 1123 -41 
Q 819 9 494 109 
L 494 744 
Q 775 591 1075 516 
Q 1375 441 1709 441 
Q 2250 441 2565 725 
Q 2881 1009 2881 1497 
Q 2881 1984 2565 2268 
Q 2250 2553 1709 2553 
Q 1456 2553 1204 2497 
Q 953 2441 691 2322 
L 691 4666 
z
" transform="scale(0.015625)"/>
      </defs>
      <use xlink:href="#DejaVuSans-35"/>
      <use xlink:href="#DejaVuSans-30" x="63.623047"/>
     </g>
    </g>
   </g>
   <g id="xtick_19">
    <g id="line2d_22">
     <path d="M 384.41807 107.225291 
L 389.198817 108.477392 
" style="fill: none; stroke: #000000; stroke-width: 0.8; stroke-linecap: square"/>
    </g>
    <g id="text_19">
     <!-- 60 -->
     <g transform="translate(398.527788 112.807556)scale(0.1 -0.1)">
      <use xlink:href="#DejaVuSans-36"/>
      <use xlink:href="#DejaVuSans-30" x="63.623047"/>
     </g>
    </g>
   </g>
   <g id="xtick_20">
    <g id="line2d_23">
     <path d="M 385.24833 88.898914 
L 390.056715 90.135311 
" style="fill: none; stroke: #000000; stroke-width: 0.8; stroke-linecap: square"/>
    </g>
    <g id="text_20">
     <!-- 70 -->
     <g transform="translate(399.469977 94.506503)scale(0.1 -0.1)">
      <defs>
       <path id="DejaVuSans-37" d="M 525 4666 
L 3525 4666 
L 3525 4397 
L 1831 0 
L 1172 0 
L 2766 4134 
L 525 4134 
L 525 4666 
z
" transform="scale(0.015625)"/>
      </defs>
      <use xlink:href="#DejaVuSans-37"/>
      <use xlink:href="#DejaVuSans-30" x="63.623047"/>
     </g>
    </g>
   </g>
  </g>
  <g id="axes_1">
   <g id="line2d_24">
    <path d="M 119.875921 215.2216 
L 122.759906 214.824038 
L 125.641855 214.426757 
L 128.52177 214.029756 
L 131.399652 213.633035 
L 134.275505 213.236594 
L 137.14933 212.840432 
L 140.021129 212.44455 
L 142.890904 212.048946 
L 145.758658 211.653622 
L 148.624393 211.258575 
L 151.488111 210.863807 
L 154.349813 210.469317 
L 157.209503 210.075104 
L 160.067182 209.681168 
L 162.922852 209.287509 
L 165.776516 208.894126 
L 168.628175 208.50102 
L 171.477832 208.10819 
L 174.325489 207.715636 
L 177.171147 207.323357 
L 180.01481 206.931354 
L 182.856479 206.539625 
L 185.696156 206.148171 
L 188.533843 205.756991 
L 191.369543 205.366085 
L 194.203257 204.975453 
L 197.034988 204.585094 
L 199.864737 204.195008 
L 202.692507 203.805195 
L 205.5183 203.415655 
L 207.289337 203.947845 
L 209.062068 204.480544 
L 210.836494 205.013752 
L 212.612618 205.547471 
L 214.390443 206.0817 
L 216.16997 206.616442 
L 217.951203 207.151696 
L 219.734144 207.687463 
L 221.518795 208.223744 
L 221.518795 208.223744 
L 223.305159 208.760539 
L 223.305159 208.760539 
L 226.136277 208.367527 
L 228.965406 207.974791 
L 231.79255 207.58233 
L 234.617711 207.190145 
L 237.44089 206.798235 
L 240.26209 206.406599 
L 243.081313 206.015238 
L 245.898561 205.624151 
L 248.713835 205.233338 
L 250.508437 205.767267 
L 250.508437 205.767267 
L 251.527139 204.842799 
L 251.527139 204.842799 
L 252.544155 203.919861 
L 253.559489 202.998449 
L 254.573146 202.07856 
L 255.585129 201.160189 
L 256.595443 200.243334 
L 257.604091 199.32799 
L 258.611078 198.414153 
L 259.616409 197.50182 
L 260.620086 196.590987 
L 261.622114 195.68165 
" clip-path="url(#pf5e418a016)" style="fill: none; stroke: #0000ff; stroke-width: 1.5; stroke-linecap: square"/>
   </g>
   <g id="Path3DCollection_1">
    <defs>
     <path id="m7f14bfde26" d="M 0 2.236068 
C 0.593012 2.236068 1.161816 2.000462 1.581139 1.581139 
C 2.000462 1.161816 2.236068 0.593012 2.236068 0 
C 2.236068 -0.593012 2.000462 -1.161816 1.581139 -1.581139 
C 1.161816 -2.000462 0.593012 -2.236068 0 -2.236068 
C -0.593012 -2.236068 -1.161816 -2.000462 -1.581139 -1.581139 
C -2.000462 -1.161816 -2.236068 -0.593012 -2.236068 0 
C -2.236068 0.593012 -2.000462 1.161816 -1.581139 1.581139 
C -1.161816 2.000462 -0.593012 2.236068 0 2.236068 
z
" style="stroke: #ff0000"/>
    </defs>
    <g clip-path="url(#pf5e418a016)">
     <use xlink:href="#m7f14bfde26" x="229.934285" y="176.59073" style="fill: #ff0000; stroke: #ff0000"/>
    </g>
   </g>
   <g id="Path3DCollection_2">
    <g clip-path="url(#pf5e418a016)">
     <use xlink:href="#m7f14bfde26" x="229.931624" y="174.919052" style="fill: #ff0000; stroke: #ff0000"/>
    </g>
   </g>
   <g id="Path3DCollection_3">
    <g clip-path="url(#pf5e418a016)">
     <use xlink:href="#m7f14bfde26" x="189.202802" y="222.07699" style="fill: #ff0000; stroke: #ff0000"/>
    </g>
   </g>
   <g id="Path3DCollection_4">
    <g clip-path="url(#pf5e418a016)">
     <use xlink:href="#m7f14bfde26" x="189.178048" y="220.359872" style="fill: #ff0000; stroke: #ff0000"/>
    </g>
   </g>
   <g id="Path3DCollection_5">
    <defs>
     <path id="m599ae432c4" d="M 0 -3.535534 
L -3.535534 3.535534 
L 3.535534 3.535534 
z
" style="stroke: #008000"/>
    </defs>
    <g clip-path="url(#pf5e418a016)">
     <use xlink:href="#m599ae432c4" x="261.622114" y="195.68165" style="fill: #008000; stroke: #008000"/>
    </g>
   </g>
   <g id="Path3DCollection_6">
    <g clip-path="url(#pf5e418a016)">
     <use xlink:href="#m599ae432c4" x="261.622114" y="195.68165" style="fill: #008000; stroke: #008000"/>
    </g>
   </g>
   <g id="Path3DCollection_7">
    <g clip-path="url(#pf5e418a016)">
     <use xlink:href="#m599ae432c4" x="261.622114" y="195.68165" style="fill: #008000; stroke: #008000"/>
    </g>
   </g>
   <g id="Path3DCollection_8">
    <g clip-path="url(#pf5e418a016)">
     <use xlink:href="#m599ae432c4" x="261.622114" y="195.68165" style="fill: #008000; stroke: #008000"/>
    </g>
   </g>
   <g id="Path3DCollection_9">
    <g clip-path="url(#pf5e418a016)">
     <use xlink:href="#m599ae432c4" x="261.622114" y="195.68165" style="fill: #008000; stroke: #008000"/>
    </g>
   </g>
   <g id="Path3DCollection_10">
    <g clip-path="url(#pf5e418a016)">
     <use xlink:href="#m599ae432c4" x="261.622114" y="195.68165" style="fill: #008000; stroke: #008000"/>
    </g>
   </g>
   <g id="Path3DCollection_11">
    <g clip-path="url(#pf5e418a016)">
     <use xlink:href="#m599ae432c4" x="261.622114" y="195.68165" style="fill: #008000; stroke: #008000"/>
    </g>
   </g>
   <g id="Path3DCollection_12">
    <g clip-path="url(#pf5e418a016)">
     <use xlink:href="#m599ae432c4" x="261.622114" y="195.68165" style="fill: #008000; stroke: #008000"/>
    </g>
   </g>
   <g id="Path3DCollection_13">
    <g clip-path="url(#pf5e418a016)">
     <use xlink:href="#m599ae432c4" x="261.622114" y="195.68165" style="fill: #008000; stroke: #008000"/>
    </g>
   </g>
   <g id="Path3DCollection_14">
    <g clip-path="url(#pf5e418a016)">
     <use xlink:href="#m599ae432c4" x="261.622114" y="195.68165" style="fill: #008000; stroke: #008000"/>
    </g>
   </g>
   <g id="Path3DCollection_15">
    <g clip-path="url(#pf5e418a016)">
     <use xlink:href="#m599ae432c4" x="261.622114" y="195.68165" style="fill: #008000; stroke: #008000"/>
    </g>
   </g>
   <g id="Path3DCollection_16">
    <g clip-path="url(#pf5e418a016)">
     <use xlink:href="#m599ae432c4" x="261.622114" y="195.68165" style="fill: #008000; stroke: #008000"/>
    </g>
   </g>
   <g id="Path3DCollection_17">
    <g clip-path="url(#pf5e418a016)">
     <use xlink:href="#m599ae432c4" x="261.622114" y="195.68165" style="fill: #008000; stroke: #008000"/>
    </g>
   </g>
   <g id="Path3DCollection_18">
    <g clip-path="url(#pf5e418a016)">
     <use xlink:href="#m599ae432c4" x="261.622114" y="195.68165" style="fill: #008000; stroke: #008000"/>
    </g>
   </g>
   <g id="Path3DCollection_19">
    <g clip-path="url(#pf5e418a016)">
     <use xlink:href="#m599ae432c4" x="261.622114" y="195.68165" style="fill: #008000; stroke: #008000"/>
    </g>
   </g>
   <g id="Path3DCollection_20">
    <g clip-path="url(#pf5e418a016)">
     <use xlink:href="#m599ae432c4" x="261.622114" y="195.68165" style="fill: #008000; stroke: #008000"/>
    </g>
   </g>
   <g id="Path3DCollection_21">
    <g clip-path="url(#pf5e418a016)">
     <use xlink:href="#m599ae432c4" x="261.622114" y="195.68165" style="fill: #008000; stroke: #008000"/>
    </g>
   </g>
   <g id="Path3DCollection_22">
    <g clip-path="url(#pf5e418a016)">
     <use xlink:href="#m599ae432c4" x="261.622114" y="195.68165" style="fill: #008000; stroke: #008000"/>
    </g>
   </g>
   <g id="Path3DCollection_23">
    <g clip-path="url(#pf5e418a016)">
     <use xlink:href="#m599ae432c4" x="261.622114" y="195.68165" style="fill: #008000; stroke: #008000"/>
    </g>
   </g>
   <g id="Path3DCollection_24">
    <g clip-path="url(#pf5e418a016)">
     <use xlink:href="#m599ae432c4" x="261.622114" y="195.68165" style="fill: #008000; stroke: #008000"/>
    </g>
   </g>
   <g id="Path3DCollection_25">
    <g clip-path="url(#pf5e418a016)">
     <use xlink:href="#m599ae432c4" x="261.622114" y="195.68165" style="fill: #008000; stroke: #008000"/>
    </g>
   </g>
   <g id="Path3DCollection_26">
    <g clip-path="url(#pf5e418a016)">
     <use xlink:href="#m599ae432c4" x="261.622114" y="195.68165" style="fill: #008000; stroke: #008000"/>
    </g>
   </g>
   <g id="Path3DCollection_27">
    <g clip-path="url(#pf5e418a016)">
     <use xlink:href="#m599ae432c4" x="261.622114" y="195.68165" style="fill: #008000; stroke: #008000"/>
    </g>
   </g>
   <g id="Path3DCollection_28">
    <g clip-path="url(#pf5e418a016)">
     <use xlink:href="#m599ae432c4" x="261.622114" y="195.68165" style="fill: #008000; stroke: #008000"/>
    </g>
   </g>
   <g id="Path3DCollection_29">
    <g clip-path="url(#pf5e418a016)">
     <use xlink:href="#m599ae432c4" x="261.622114" y="195.68165" style="fill: #008000; stroke: #008000"/>
    </g>
   </g>
   <g id="Path3DCollection_30">
    <g clip-path="url(#pf5e418a016)">
     <use xlink:href="#m599ae432c4" x="261.622114" y="195.68165" style="fill: #008000; stroke: #008000"/>
    </g>
   </g>
   <g id="Path3DCollection_31">
    <g clip-path="url(#pf5e418a016)">
     <use xlink:href="#m599ae432c4" x="261.622114" y="195.68165" style="fill: #008000; stroke: #008000"/>
    </g>
   </g>
   <g id="Path3DCollection_32">
    <g clip-path="url(#pf5e418a016)">
     <use xlink:href="#m599ae432c4" x="261.622114" y="195.68165" style="fill: #008000; stroke: #008000"/>
    </g>
   </g>
   <g id="Path3DCollection_33">
    <g clip-path="url(#pf5e418a016)">
     <use xlink:href="#m599ae432c4" x="261.622114" y="195.68165" style="fill: #008000; stroke: #008000"/>
    </g>
   </g>
   <g id="Path3DCollection_34">
    <g clip-path="url(#pf5e418a016)">
     <use xlink:href="#m599ae432c4" x="261.622114" y="195.68165" style="fill: #008000; stroke: #008000"/>
    </g>
   </g>
   <g id="Path3DCollection_35">
    <g clip-path="url(#pf5e418a016)">
     <use xlink:href="#m599ae432c4" x="261.622114" y="195.68165" style="fill: #008000; stroke: #008000"/>
    </g>
   </g>
   <g id="Path3DCollection_36">
    <g clip-path="url(#pf5e418a016)">
     <use xlink:href="#m599ae432c4" x="261.622114" y="195.68165" style="fill: #008000; stroke: #008000"/>
    </g>
   </g>
   <g id="Path3DCollection_37">
    <g clip-path="url(#pf5e418a016)">
     <use xlink:href="#m599ae432c4" x="261.622114" y="195.68165" style="fill: #008000; stroke: #008000"/>
    </g>
   </g>
   <g id="Path3DCollection_38">
    <g clip-path="url(#pf5e418a016)">
     <use xlink:href="#m599ae432c4" x="261.622114" y="195.68165" style="fill: #008000; stroke: #008000"/>
    </g>
   </g>
   <g id="Path3DCollection_39">
    <g clip-path="url(#pf5e418a016)">
     <use xlink:href="#m599ae432c4" x="261.622114" y="195.68165" style="fill: #008000; stroke: #008000"/>
    </g>
   </g>
   <g id="Path3DCollection_40">
    <g clip-path="url(#pf5e418a016)">
     <use xlink:href="#m599ae432c4" x="261.622114" y="195.68165" style="fill: #008000; stroke: #008000"/>
    </g>
   </g>
   <g id="Path3DCollection_41">
    <g clip-path="url(#pf5e418a016)">
     <use xlink:href="#m599ae432c4" x="261.622114" y="195.68165" style="fill: #008000; stroke: #008000"/>
    </g>
   </g>
   <g id="Path3DCollection_42">
    <g clip-path="url(#pf5e418a016)">
     <use xlink:href="#m599ae432c4" x="261.622114" y="195.68165" style="fill: #008000; stroke: #008000"/>
    </g>
   </g>
   <g id="Path3DCollection_43">
    <g clip-path="url(#pf5e418a016)">
     <use xlink:href="#m599ae432c4" x="261.622114" y="195.68165" style="fill: #008000; stroke: #008000"/>
    </g>
   </g>
   <g id="Path3DCollection_44">
    <g clip-path="url(#pf5e418a016)">
     <use xlink:href="#m599ae432c4" x="261.622114" y="195.68165" style="fill: #008000; stroke: #008000"/>
    </g>
   </g>
   <g id="Path3DCollection_45">
    <g clip-path="url(#pf5e418a016)">
     <use xlink:href="#m599ae432c4" x="261.622114" y="195.68165" style="fill: #008000; stroke: #008000"/>
    </g>
   </g>
   <g id="Path3DCollection_46">
    <g clip-path="url(#pf5e418a016)">
     <use xlink:href="#m599ae432c4" x="261.622114" y="195.68165" style="fill: #008000; stroke: #008000"/>
    </g>
   </g>
   <g id="Path3DCollection_47">
    <g clip-path="url(#pf5e418a016)">
     <use xlink:href="#m599ae432c4" x="261.622114" y="195.68165" style="fill: #008000; stroke: #008000"/>
    </g>
   </g>
   <g id="Path3DCollection_48">
    <g clip-path="url(#pf5e418a016)">
     <use xlink:href="#m599ae432c4" x="261.622114" y="195.68165" style="fill: #008000; stroke: #008000"/>
    </g>
   </g>
   <g id="Path3DCollection_49">
    <g clip-path="url(#pf5e418a016)">
     <use xlink:href="#m599ae432c4" x="261.622114" y="195.68165" style="fill: #008000; stroke: #008000"/>
    </g>
   </g>
   <g id="Path3DCollection_50">
    <g clip-path="url(#pf5e418a016)">
     <use xlink:href="#m599ae432c4" x="261.622114" y="195.68165" style="fill: #008000; stroke: #008000"/>
    </g>
   </g>
   <g id="Path3DCollection_51">
    <g clip-path="url(#pf5e418a016)">
     <use xlink:href="#m599ae432c4" x="261.622114" y="195.68165" style="fill: #008000; stroke: #008000"/>
    </g>
   </g>
   <g id="Path3DCollection_52">
    <g clip-path="url(#pf5e418a016)">
     <use xlink:href="#m599ae432c4" x="261.622114" y="195.68165" style="fill: #008000; stroke: #008000"/>
    </g>
   </g>
   <g id="Path3DCollection_53">
    <g clip-path="url(#pf5e418a016)">
     <use xlink:href="#m599ae432c4" x="261.622114" y="195.68165" style="fill: #008000; stroke: #008000"/>
    </g>
   </g>
   <g id="Path3DCollection_54">
    <g clip-path="url(#pf5e418a016)">
     <use xlink:href="#m599ae432c4" x="261.622114" y="195.68165" style="fill: #008000; stroke: #008000"/>
    </g>
   </g>
   <g id="Path3DCollection_55">
    <g clip-path="url(#pf5e418a016)">
     <use xlink:href="#m599ae432c4" x="261.622114" y="195.68165" style="fill: #008000; stroke: #008000"/>
    </g>
   </g>
   <g id="Path3DCollection_56">
    <g clip-path="url(#pf5e418a016)">
     <use xlink:href="#m599ae432c4" x="261.622114" y="195.68165" style="fill: #008000; stroke: #008000"/>
    </g>
   </g>
   <g id="Path3DCollection_57">
    <g clip-path="url(#pf5e418a016)">
     <use xlink:href="#m599ae432c4" x="261.622114" y="195.68165" style="fill: #008000; stroke: #008000"/>
    </g>
   </g>
   <g id="Path3DCollection_58">
    <g clip-path="url(#pf5e418a016)">
     <use xlink:href="#m599ae432c4" x="261.622114" y="195.68165" style="fill: #008000; stroke: #008000"/>
    </g>
   </g>
   <g id="Path3DCollection_59">
    <g clip-path="url(#pf5e418a016)">
     <use xlink:href="#m599ae432c4" x="261.622114" y="195.68165" style="fill: #008000; stroke: #008000"/>
    </g>
   </g>
   <g id="Path3DCollection_60">
    <g clip-path="url(#pf5e418a016)">
     <use xlink:href="#m599ae432c4" x="261.622114" y="195.68165" style="fill: #008000; stroke: #008000"/>
    </g>
   </g>
   <g id="Path3DCollection_61">
    <g clip-path="url(#pf5e418a016)">
     <use xlink:href="#m599ae432c4" x="261.622114" y="195.68165" style="fill: #008000; stroke: #008000"/>
    </g>
   </g>
   <g id="Path3DCollection_62">
    <g clip-path="url(#pf5e418a016)">
     <use xlink:href="#m599ae432c4" x="261.622114" y="195.68165" style="fill: #008000; stroke: #008000"/>
    </g>
   </g>
   <g id="Path3DCollection_63">
    <g clip-path="url(#pf5e418a016)">
     <use xlink:href="#m599ae432c4" x="261.622114" y="195.68165" style="fill: #008000; stroke: #008000"/>
    </g>
   </g>
   <g id="Path3DCollection_64">
    <g clip-path="url(#pf5e418a016)">
     <use xlink:href="#m599ae432c4" x="261.622114" y="195.68165" style="fill: #008000; stroke: #008000"/>
    </g>
   </g>
   <g id="Path3DCollection_65">
    <g clip-path="url(#pf5e418a016)">
     <use xlink:href="#m599ae432c4" x="261.622114" y="195.68165" style="fill: #008000; stroke: #008000"/>
    </g>
   </g>
   <g id="Path3DCollection_66">
    <g clip-path="url(#pf5e418a016)">
     <use xlink:href="#m599ae432c4" x="261.622114" y="195.68165" style="fill: #008000; stroke: #008000"/>
    </g>
   </g>
   <g id="Path3DCollection_67">
    <g clip-path="url(#pf5e418a016)">
     <use xlink:href="#m599ae432c4" x="261.622114" y="195.68165" style="fill: #008000; stroke: #008000"/>
    </g>
   </g>
   <g id="Path3DCollection_68">
    <g clip-path="url(#pf5e418a016)">
     <use xlink:href="#m599ae432c4" x="261.622114" y="195.68165" style="fill: #008000; stroke: #008000"/>
    </g>
   </g>
   <g id="Path3DCollection_69">
    <g clip-path="url(#pf5e418a016)">
     <use xlink:href="#m599ae432c4" x="261.622114" y="195.68165" style="fill: #008000; stroke: #008000"/>
    </g>
   </g>
   <g id="Path3DCollection_70">
    <g clip-path="url(#pf5e418a016)">
     <use xlink:href="#m599ae432c4" x="261.622114" y="195.68165" style="fill: #008000; stroke: #008000"/>
    </g>
   </g>
   <g id="Path3DCollection_71">
    <defs>
     <path id="m8242439b91" d="M 0 3.535534 
C 0.937635 3.535534 1.836992 3.163008 2.5 2.5 
C 3.163008 1.836992 3.535534 0.937635 3.535534 0 
C 3.535534 -0.937635 3.163008 -1.836992 2.5 -2.5 
C 1.836992 -3.163008 0.937635 -3.535534 0 -3.535534 
C -0.937635 -3.535534 -1.836992 -3.163008 -2.5 -2.5 
C -3.163008 -1.836992 -3.535534 -0.937635 -3.535534 0 
C -3.535534 0.937635 -3.163008 1.836992 -2.5 2.5 
C -1.836992 3.163008 -0.937635 3.535534 0 3.535534 
z
" style="stroke: #00ffff"/>
    </defs>
    <g clip-path="url(#pf5e418a016)">
     <use xlink:href="#m8242439b91" x="119.875921" y="215.2216" style="fill: #00ffff; stroke: #00ffff"/>
    </g>
   </g>
   <g id="Path3DCollection_72">
    <g clip-path="url(#pf5e418a016)">
     <use xlink:href="#m8242439b91" x="119.875921" y="215.2216" style="fill: #00ffff; stroke: #00ffff"/>
    </g>
   </g>
   <g id="Path3DCollection_73">
    <g clip-path="url(#pf5e418a016)">
     <use xlink:href="#m8242439b91" x="119.875921" y="215.2216" style="fill: #00ffff; stroke: #00ffff"/>
    </g>
   </g>
   <g id="Path3DCollection_74">
    <g clip-path="url(#pf5e418a016)">
     <use xlink:href="#m8242439b91" x="119.875921" y="215.2216" style="fill: #00ffff; stroke: #00ffff"/>
    </g>
   </g>
   <g id="Path3DCollection_75">
    <g clip-path="url(#pf5e418a016)">
     <use xlink:href="#m8242439b91" x="119.875921" y="215.2216" style="fill: #00ffff; stroke: #00ffff"/>
    </g>
   </g>
   <g id="Path3DCollection_76">
    <g clip-path="url(#pf5e418a016)">
     <use xlink:href="#m8242439b91" x="119.875921" y="215.2216" style="fill: #00ffff; stroke: #00ffff"/>
    </g>
   </g>
   <g id="Path3DCollection_77">
    <g clip-path="url(#pf5e418a016)">
     <use xlink:href="#m8242439b91" x="119.875921" y="215.2216" style="fill: #00ffff; stroke: #00ffff"/>
    </g>
   </g>
   <g id="Path3DCollection_78">
    <g clip-path="url(#pf5e418a016)">
     <use xlink:href="#m8242439b91" x="119.875921" y="215.2216" style="fill: #00ffff; stroke: #00ffff"/>
    </g>
   </g>
   <g id="Path3DCollection_79">
    <g clip-path="url(#pf5e418a016)">
     <use xlink:href="#m8242439b91" x="119.875921" y="215.2216" style="fill: #00ffff; stroke: #00ffff"/>
    </g>
   </g>
   <g id="Path3DCollection_80">
    <g clip-path="url(#pf5e418a016)">
     <use xlink:href="#m8242439b91" x="119.875921" y="215.2216" style="fill: #00ffff; stroke: #00ffff"/>
    </g>
   </g>
   <g id="Path3DCollection_81">
    <g clip-path="url(#pf5e418a016)">
     <use xlink:href="#m8242439b91" x="119.875921" y="215.2216" style="fill: #00ffff; stroke: #00ffff"/>
    </g>
   </g>
   <g id="Path3DCollection_82">
    <g clip-path="url(#pf5e418a016)">
     <use xlink:href="#m8242439b91" x="119.875921" y="215.2216" style="fill: #00ffff; stroke: #00ffff"/>
    </g>
   </g>
   <g id="Path3DCollection_83">
    <g clip-path="url(#pf5e418a016)">
     <use xlink:href="#m8242439b91" x="119.875921" y="215.2216" style="fill: #00ffff; stroke: #00ffff"/>
    </g>
   </g>
   <g id="Path3DCollection_84">
    <g clip-path="url(#pf5e418a016)">
     <use xlink:href="#m8242439b91" x="119.875921" y="215.2216" style="fill: #00ffff; stroke: #00ffff"/>
    </g>
   </g>
   <g id="Path3DCollection_85">
    <g clip-path="url(#pf5e418a016)">
     <use xlink:href="#m8242439b91" x="119.875921" y="215.2216" style="fill: #00ffff; stroke: #00ffff"/>
    </g>
   </g>
   <g id="Path3DCollection_86">
    <g clip-path="url(#pf5e418a016)">
     <use xlink:href="#m8242439b91" x="119.875921" y="215.2216" style="fill: #00ffff; stroke: #00ffff"/>
    </g>
   </g>
   <g id="Path3DCollection_87">
    <g clip-path="url(#pf5e418a016)">
     <use xlink:href="#m8242439b91" x="119.875921" y="215.2216" style="fill: #00ffff; stroke: #00ffff"/>
    </g>
   </g>
   <g id="Path3DCollection_88">
    <g clip-path="url(#pf5e418a016)">
     <use xlink:href="#m8242439b91" x="119.875921" y="215.2216" style="fill: #00ffff; stroke: #00ffff"/>
    </g>
   </g>
   <g id="Path3DCollection_89">
    <g clip-path="url(#pf5e418a016)">
     <use xlink:href="#m8242439b91" x="119.875921" y="215.2216" style="fill: #00ffff; stroke: #00ffff"/>
    </g>
   </g>
   <g id="Path3DCollection_90">
    <g clip-path="url(#pf5e418a016)">
     <use xlink:href="#m8242439b91" x="119.875921" y="215.2216" style="fill: #00ffff; stroke: #00ffff"/>
    </g>
   </g>
   <g id="Path3DCollection_91">
    <g clip-path="url(#pf5e418a016)">
     <use xlink:href="#m8242439b91" x="119.875921" y="215.2216" style="fill: #00ffff; stroke: #00ffff"/>
    </g>
   </g>
   <g id="Path3DCollection_92">
    <g clip-path="url(#pf5e418a016)">
     <use xlink:href="#m8242439b91" x="119.875921" y="215.2216" style="fill: #00ffff; stroke: #00ffff"/>
    </g>
   </g>
   <g id="Path3DCollection_93">
    <g clip-path="url(#pf5e418a016)">
     <use xlink:href="#m8242439b91" x="119.875921" y="215.2216" style="fill: #00ffff; stroke: #00ffff"/>
    </g>
   </g>
   <g id="Path3DCollection_94">
    <g clip-path="url(#pf5e418a016)">
     <use xlink:href="#m8242439b91" x="119.875921" y="215.2216" style="fill: #00ffff; stroke: #00ffff"/>
    </g>
   </g>
   <g id="Path3DCollection_95">
    <g clip-path="url(#pf5e418a016)">
     <use xlink:href="#m8242439b91" x="119.875921" y="215.2216" style="fill: #00ffff; stroke: #00ffff"/>
    </g>
   </g>
   <g id="Path3DCollection_96">
    <g clip-path="url(#pf5e418a016)">
     <use xlink:href="#m8242439b91" x="119.875921" y="215.2216" style="fill: #00ffff; stroke: #00ffff"/>
    </g>
   </g>
   <g id="Path3DCollection_97">
    <g clip-path="url(#pf5e418a016)">
     <use xlink:href="#m8242439b91" x="119.875921" y="215.2216" style="fill: #00ffff; stroke: #00ffff"/>
    </g>
   </g>
   <g id="Path3DCollection_98">
    <g clip-path="url(#pf5e418a016)">
     <use xlink:href="#m8242439b91" x="119.875921" y="215.2216" style="fill: #00ffff; stroke: #00ffff"/>
    </g>
   </g>
   <g id="Path3DCollection_99">
    <g clip-path="url(#pf5e418a016)">
     <use xlink:href="#m8242439b91" x="119.875921" y="215.2216" style="fill: #00ffff; stroke: #00ffff"/>
    </g>
   </g>
   <g id="Path3DCollection_100">
    <g clip-path="url(#pf5e418a016)">
     <use xlink:href="#m8242439b91" x="119.875921" y="215.2216" style="fill: #00ffff; stroke: #00ffff"/>
    </g>
   </g>
   <g id="Path3DCollection_101">
    <g clip-path="url(#pf5e418a016)">
     <use xlink:href="#m8242439b91" x="119.875921" y="215.2216" style="fill: #00ffff; stroke: #00ffff"/>
    </g>
   </g>
   <g id="Path3DCollection_102">
    <g clip-path="url(#pf5e418a016)">
     <use xlink:href="#m8242439b91" x="119.875921" y="215.2216" style="fill: #00ffff; stroke: #00ffff"/>
    </g>
   </g>
   <g id="Path3DCollection_103">
    <g clip-path="url(#pf5e418a016)">
     <use xlink:href="#m8242439b91" x="119.875921" y="215.2216" style="fill: #00ffff; stroke: #00ffff"/>
    </g>
   </g>
   <g id="Path3DCollection_104">
    <g clip-path="url(#pf5e418a016)">
     <use xlink:href="#m8242439b91" x="119.875921" y="215.2216" style="fill: #00ffff; stroke: #00ffff"/>
    </g>
   </g>
   <g id="Path3DCollection_105">
    <g clip-path="url(#pf5e418a016)">
     <use xlink:href="#m8242439b91" x="119.875921" y="215.2216" style="fill: #00ffff; stroke: #00ffff"/>
    </g>
   </g>
   <g id="Path3DCollection_106">
    <g clip-path="url(#pf5e418a016)">
     <use xlink:href="#m8242439b91" x="119.875921" y="215.2216" style="fill: #00ffff; stroke: #00ffff"/>
    </g>
   </g>
   <g id="Path3DCollection_107">
    <g clip-path="url(#pf5e418a016)">
     <use xlink:href="#m8242439b91" x="119.875921" y="215.2216" style="fill: #00ffff; stroke: #00ffff"/>
    </g>
   </g>
   <g id="Path3DCollection_108">
    <g clip-path="url(#pf5e418a016)">
     <use xlink:href="#m8242439b91" x="119.875921" y="215.2216" style="fill: #00ffff; stroke: #00ffff"/>
    </g>
   </g>
   <g id="Path3DCollection_109">
    <g clip-path="url(#pf5e418a016)">
     <use xlink:href="#m8242439b91" x="119.875921" y="215.2216" style="fill: #00ffff; stroke: #00ffff"/>
    </g>
   </g>
   <g id="Path3DCollection_110">
    <g clip-path="url(#pf5e418a016)">
     <use xlink:href="#m8242439b91" x="119.875921" y="215.2216" style="fill: #00ffff; stroke: #00ffff"/>
    </g>
   </g>
   <g id="Path3DCollection_111">
    <g clip-path="url(#pf5e418a016)">
     <use xlink:href="#m8242439b91" x="119.875921" y="215.2216" style="fill: #00ffff; stroke: #00ffff"/>
    </g>
   </g>
   <g id="Path3DCollection_112">
    <g clip-path="url(#pf5e418a016)">
     <use xlink:href="#m8242439b91" x="119.875921" y="215.2216" style="fill: #00ffff; stroke: #00ffff"/>
    </g>
   </g>
   <g id="Path3DCollection_113">
    <g clip-path="url(#pf5e418a016)">
     <use xlink:href="#m8242439b91" x="119.875921" y="215.2216" style="fill: #00ffff; stroke: #00ffff"/>
    </g>
   </g>
   <g id="Path3DCollection_114">
    <g clip-path="url(#pf5e418a016)">
     <use xlink:href="#m8242439b91" x="119.875921" y="215.2216" style="fill: #00ffff; stroke: #00ffff"/>
    </g>
   </g>
   <g id="Path3DCollection_115">
    <g clip-path="url(#pf5e418a016)">
     <use xlink:href="#m8242439b91" x="119.875921" y="215.2216" style="fill: #00ffff; stroke: #00ffff"/>
    </g>
   </g>
   <g id="Path3DCollection_116">
    <g clip-path="url(#pf5e418a016)">
     <use xlink:href="#m8242439b91" x="119.875921" y="215.2216" style="fill: #00ffff; stroke: #00ffff"/>
    </g>
   </g>
   <g id="Path3DCollection_117">
    <g clip-path="url(#pf5e418a016)">
     <use xlink:href="#m8242439b91" x="119.875921" y="215.2216" style="fill: #00ffff; stroke: #00ffff"/>
    </g>
   </g>
   <g id="Path3DCollection_118">
    <g clip-path="url(#pf5e418a016)">
     <use xlink:href="#m8242439b91" x="119.875921" y="215.2216" style="fill: #00ffff; stroke: #00ffff"/>
    </g>
   </g>
   <g id="Path3DCollection_119">
    <g clip-path="url(#pf5e418a016)">
     <use xlink:href="#m8242439b91" x="119.875921" y="215.2216" style="fill: #00ffff; stroke: #00ffff"/>
    </g>
   </g>
   <g id="Path3DCollection_120">
    <g clip-path="url(#pf5e418a016)">
     <use xlink:href="#m8242439b91" x="119.875921" y="215.2216" style="fill: #00ffff; stroke: #00ffff"/>
    </g>
   </g>
   <g id="Path3DCollection_121">
    <g clip-path="url(#pf5e418a016)">
     <use xlink:href="#m8242439b91" x="119.875921" y="215.2216" style="fill: #00ffff; stroke: #00ffff"/>
    </g>
   </g>
   <g id="Path3DCollection_122">
    <g clip-path="url(#pf5e418a016)">
     <use xlink:href="#m8242439b91" x="119.875921" y="215.2216" style="fill: #00ffff; stroke: #00ffff"/>
    </g>
   </g>
   <g id="Path3DCollection_123">
    <g clip-path="url(#pf5e418a016)">
     <use xlink:href="#m8242439b91" x="119.875921" y="215.2216" style="fill: #00ffff; stroke: #00ffff"/>
    </g>
   </g>
   <g id="Path3DCollection_124">
    <g clip-path="url(#pf5e418a016)">
     <use xlink:href="#m8242439b91" x="119.875921" y="215.2216" style="fill: #00ffff; stroke: #00ffff"/>
    </g>
   </g>
   <g id="Path3DCollection_125">
    <g clip-path="url(#pf5e418a016)">
     <use xlink:href="#m8242439b91" x="119.875921" y="215.2216" style="fill: #00ffff; stroke: #00ffff"/>
    </g>
   </g>
   <g id="Path3DCollection_126">
    <g clip-path="url(#pf5e418a016)">
     <use xlink:href="#m8242439b91" x="119.875921" y="215.2216" style="fill: #00ffff; stroke: #00ffff"/>
    </g>
   </g>
   <g id="Path3DCollection_127">
    <g clip-path="url(#pf5e418a016)">
     <use xlink:href="#m8242439b91" x="119.875921" y="215.2216" style="fill: #00ffff; stroke: #00ffff"/>
    </g>
   </g>
   <g id="Path3DCollection_128">
    <g clip-path="url(#pf5e418a016)">
     <use xlink:href="#m8242439b91" x="119.875921" y="215.2216" style="fill: #00ffff; stroke: #00ffff"/>
    </g>
   </g>
   <g id="Path3DCollection_129">
    <g clip-path="url(#pf5e418a016)">
     <use xlink:href="#m8242439b91" x="119.875921" y="215.2216" style="fill: #00ffff; stroke: #00ffff"/>
    </g>
   </g>
   <g id="Path3DCollection_130">
    <g clip-path="url(#pf5e418a016)">
     <use xlink:href="#m8242439b91" x="119.875921" y="215.2216" style="fill: #00ffff; stroke: #00ffff"/>
    </g>
   </g>
   <g id="Path3DCollection_131">
    <g clip-path="url(#pf5e418a016)">
     <use xlink:href="#m8242439b91" x="119.875921" y="215.2216" style="fill: #00ffff; stroke: #00ffff"/>
    </g>
   </g>
   <g id="Path3DCollection_132">
    <g clip-path="url(#pf5e418a016)">
     <use xlink:href="#m8242439b91" x="119.875921" y="215.2216" style="fill: #00ffff; stroke: #00ffff"/>
    </g>
   </g>
   <g id="Path3DCollection_133">
    <g clip-path="url(#pf5e418a016)">
     <use xlink:href="#m8242439b91" x="119.875921" y="215.2216" style="fill: #00ffff; stroke: #00ffff"/>
    </g>
   </g>
   <g id="Path3DCollection_134">
    <g clip-path="url(#pf5e418a016)">
     <use xlink:href="#m8242439b91" x="119.875921" y="215.2216" style="fill: #00ffff; stroke: #00ffff"/>
    </g>
   </g>
   <g id="Path3DCollection_135">
    <g clip-path="url(#pf5e418a016)">
     <use xlink:href="#m8242439b91" x="119.875921" y="215.2216" style="fill: #00ffff; stroke: #00ffff"/>
    </g>
   </g>
   <g id="Path3DCollection_136">
    <g clip-path="url(#pf5e418a016)">
     <use xlink:href="#m8242439b91" x="119.875921" y="215.2216" style="fill: #00ffff; stroke: #00ffff"/>
    </g>
   </g>
   <g id="Path3DCollection_137">
    <g clip-path="url(#pf5e418a016)">
     <use xlink:href="#m7f14bfde26" x="267.2884" y="279.727401" style="fill: #ff0000; stroke: #ff0000"/>
    </g>
   </g>
   <g id="Path3DCollection_138">
    <g clip-path="url(#pf5e418a016)">
     <use xlink:href="#m7f14bfde26" x="267.306673" y="277.95552" style="fill: #ff0000; stroke: #ff0000"/>
    </g>
   </g>
  </g>
 </g>
 <defs>
  <clipPath id="pf5e418a016">
   <rect x="57.6" y="0" width="345.6" height="345.6"/>
  </clipPath>
 </defs>
</svg>
