<?xml version="1.0" encoding="utf-8" standalone="no"?>
<!DOCTYPE svg PUBLIC "-//W3C//DTD SVG 1.1//EN"
  "http://www.w3.org/Graphics/SVG/1.1/DTD/svg11.dtd">
<svg xmlns:xlink="http://www.w3.org/1999/xlink" width="460.8pt" height="345.6pt" viewBox="0 0 460.8 345.6" xmlns="http://www.w3.org/2000/svg" version="1.1">
 <metadata>
  <rdf:RDF xmlns:dc="http://purl.org/dc/elements/1.1/" xmlns:cc="http://creativecommons.org/ns#" xmlns:rdf="http://www.w3.org/1999/02/22-rdf-syntax-ns#">
   <cc:Work>
    <dc:type rdf:resource="http://purl.org/dc/dcmitype/StillImage"/>
    <dc:date>2022-02-11T19:36:49.333283</dc:date>
    <dc:format>image/svg+xml</dc:format>
    <dc:creator>
     <cc:Agent>
      <dc:title>Matplotlib v3.5.0, https://matplotlib.org/</dc:title>
     </cc:Agent>
    </dc:creator>
   </cc:Work>
  </rdf:RDF>
 </metadata>
 <defs>
  <style type="text/css">*{stroke-linejoin: round; stroke-linecap: butt}</style>
 </defs>
 <g id="figure_1">
  <g id="patch_1">
   <path d="M 0 345.6 
L 460.8 345.6 
L 460.8 0 
L 0 0 
z
" style="fill: #ffffff"/>
  </g>
  <g id="patch_2">
   <path d="M 57.6 345.6 
L 403.2 345.6 
L 403.2 0 
L 57.6 0 
z
" style="fill: #ffffff"/>
  </g>
  <g id="pane3d_1">
   <g id="patch_3">
    <path d="M 83.695183 260.386116 
L 197.82359 164.721422 
L 196.237096 26.755832 
L 76.647057 114.027196 
" style="fill: #f2f2f2; opacity: 0.5; stroke: #f2f2f2; stroke-linejoin: miter"/>
   </g>
  </g>
  <g id="pane3d_2">
   <g id="patch_4">
    <path d="M 197.82359 164.721422 
L 380.958962 217.951644 
L 387.494418 75.233988 
L 196.237096 26.755832 
" style="fill: #e6e6e6; opacity: 0.5; stroke: #e6e6e6; stroke-linejoin: miter"/>
   </g>
  </g>
  <g id="pane3d_3">
   <g id="patch_5">
    <path d="M 83.695183 260.386116 
L 277.827622 323.78977 
L 380.958962 217.951644 
L 197.82359 164.721422 
" style="fill: #ececec; opacity: 0.5; stroke: #ececec; stroke-linejoin: miter"/>
   </g>
  </g>
  <g id="axis3d_1">
   <g id="line2d_1">
    <path d="M 83.695183 260.386116 
L 277.827622 323.78977 
" style="fill: none; stroke: #000000; stroke-width: 0.8; stroke-linecap: square"/>
   </g>
   <g id="Line3DCollection_1">
    <path d="M 89.102957 262.152295 
L 202.94697 166.210586 
L 201.576726 28.109273 
" style="fill: none; stroke: #b0b0b0; stroke-width: 0.8"/>
    <path d="M 123.868794 273.506817 
L 235.854344 175.775461 
L 235.888099 36.806206 
" style="fill: none; stroke: #b0b0b0; stroke-width: 0.8"/>
    <path d="M 159.314517 285.08339 
L 269.35166 185.511808 
L 270.841313 45.665827 
" style="fill: none; stroke: #b0b0b0; stroke-width: 0.8"/>
    <path d="M 195.460268 296.888592 
L 303.454927 195.424281 
L 306.454549 54.692744 
" style="fill: none; stroke: #b0b0b0; stroke-width: 0.8"/>
    <path d="M 232.326992 308.929264 
L 338.180737 205.517703 
L 342.74668 63.891741 
" style="fill: none; stroke: #b0b0b0; stroke-width: 0.8"/>
    <path d="M 269.936476 321.212521 
L 373.546294 215.797075 
L 379.737306 73.267786 
" style="fill: none; stroke: #b0b0b0; stroke-width: 0.8"/>
   </g>
   <g id="xtick_1">
    <g id="line2d_2">
     <path d="M 90.094162 261.316959 
L 87.116301 263.826543 
" style="fill: none; stroke: #000000; stroke-width: 0.8; stroke-linecap: square"/>
    </g>
    <g id="text_1">
     <!-- 0 -->
     <g transform="translate(78.394281 285.414309)scale(0.1 -0.1)">
      <defs>
       <path id="DejaVuSans-30" d="M 2034 4250 
Q 1547 4250 1301 3770 
Q 1056 3291 1056 2328 
Q 1056 1369 1301 889 
Q 1547 409 2034 409 
Q 2525 409 2770 889 
Q 3016 1369 3016 2328 
Q 3016 3291 2770 3770 
Q 2525 4250 2034 4250 
z
M 2034 4750 
Q 2819 4750 3233 4129 
Q 3647 3509 3647 2328 
Q 3647 1150 3233 529 
Q 2819 -91 2034 -91 
Q 1250 -91 836 529 
Q 422 1150 422 2328 
Q 422 3509 836 4129 
Q 1250 4750 2034 4750 
z
" transform="scale(0.015625)"/>
      </defs>
      <use xlink:href="#DejaVuSans-30"/>
     </g>
    </g>
   </g>
   <g id="xtick_2">
    <g id="line2d_3">
     <path d="M 124.844583 272.655231 
L 121.912994 275.213671 
" style="fill: none; stroke: #000000; stroke-width: 0.8; stroke-linecap: square"/>
    </g>
    <g id="text_2">
     <!-- 20 -->
     <g transform="translate(110.005979 296.953675)scale(0.1 -0.1)">
      <defs>
       <path id="DejaVuSans-32" d="M 1228 531 
L 3431 531 
L 3431 0 
L 469 0 
L 469 531 
Q 828 903 1448 1529 
Q 2069 2156 2228 2338 
Q 2531 2678 2651 2914 
Q 2772 3150 2772 3378 
Q 2772 3750 2511 3984 
Q 2250 4219 1831 4219 
Q 1534 4219 1204 4116 
Q 875 4013 500 3803 
L 500 4441 
Q 881 4594 1212 4672 
Q 1544 4750 1819 4750 
Q 2544 4750 2975 4387 
Q 3406 4025 3406 3419 
Q 3406 3131 3298 2873 
Q 3191 2616 2906 2266 
Q 2828 2175 2409 1742 
Q 1991 1309 1228 531 
z
" transform="scale(0.015625)"/>
      </defs>
      <use xlink:href="#DejaVuSans-32"/>
      <use xlink:href="#DejaVuSans-30" x="63.623047"/>
     </g>
    </g>
   </g>
   <g id="xtick_3">
    <g id="line2d_4">
     <path d="M 160.274096 284.215075 
L 157.391167 286.823811 
" style="fill: none; stroke: #000000; stroke-width: 0.8; stroke-linecap: square"/>
    </g>
    <g id="text_3">
     <!-- 40 -->
     <g transform="translate(145.481325 308.719363)scale(0.1 -0.1)">
      <defs>
       <path id="DejaVuSans-34" d="M 2419 4116 
L 825 1625 
L 2419 1625 
L 2419 4116 
z
M 2253 4666 
L 3047 4666 
L 3047 1625 
L 3713 1625 
L 3713 1100 
L 3047 1100 
L 3047 0 
L 2419 0 
L 2419 1100 
L 313 1100 
L 313 1709 
L 2253 4666 
z
" transform="scale(0.015625)"/>
      </defs>
      <use xlink:href="#DejaVuSans-34"/>
      <use xlink:href="#DejaVuSans-30" x="63.623047"/>
     </g>
    </g>
   </g>
   <g id="xtick_4">
    <g id="line2d_5">
     <path d="M 196.402804 296.003051 
L 193.57104 298.663581 
" style="fill: none; stroke: #000000; stroke-width: 0.8; stroke-linecap: square"/>
    </g>
    <g id="text_4">
     <!-- 60 -->
     <g transform="translate(181.659343 320.718098)scale(0.1 -0.1)">
      <defs>
       <path id="DejaVuSans-36" d="M 2113 2584 
Q 1688 2584 1439 2293 
Q 1191 2003 1191 1497 
Q 1191 994 1439 701 
Q 1688 409 2113 409 
Q 2538 409 2786 701 
Q 3034 994 3034 1497 
Q 3034 2003 2786 2293 
Q 2538 2584 2113 2584 
z
M 3366 4563 
L 3366 3988 
Q 3128 4100 2886 4159 
Q 2644 4219 2406 4219 
Q 1781 4219 1451 3797 
Q 1122 3375 1075 2522 
Q 1259 2794 1537 2939 
Q 1816 3084 2150 3084 
Q 2853 3084 3261 2657 
Q 3669 2231 3669 1497 
Q 3669 778 3244 343 
Q 2819 -91 2113 -91 
Q 1303 -91 875 529 
Q 447 1150 447 2328 
Q 447 3434 972 4092 
Q 1497 4750 2381 4750 
Q 2619 4750 2861 4703 
Q 3103 4656 3366 4563 
z
" transform="scale(0.015625)"/>
      </defs>
      <use xlink:href="#DejaVuSans-36"/>
      <use xlink:href="#DejaVuSans-30" x="63.623047"/>
     </g>
    </g>
   </g>
   <g id="xtick_5">
    <g id="line2d_6">
     <path d="M 233.25161 308.025978 
L 230.473637 310.73986 
" style="fill: none; stroke: #000000; stroke-width: 0.8; stroke-linecap: square"/>
    </g>
    <g id="text_5">
     <!-- 80 -->
     <g transform="translate(218.561119 332.956874)scale(0.1 -0.1)">
      <defs>
       <path id="DejaVuSans-38" d="M 2034 2216 
Q 1584 2216 1326 1975 
Q 1069 1734 1069 1313 
Q 1069 891 1326 650 
Q 1584 409 2034 409 
Q 2484 409 2743 651 
Q 3003 894 3003 1313 
Q 3003 1734 2745 1975 
Q 2488 2216 2034 2216 
z
M 1403 2484 
Q 997 2584 770 2862 
Q 544 3141 544 3541 
Q 544 4100 942 4425 
Q 1341 4750 2034 4750 
Q 2731 4750 3128 4425 
Q 3525 4100 3525 3541 
Q 3525 3141 3298 2862 
Q 3072 2584 2669 2484 
Q 3125 2378 3379 2068 
Q 3634 1759 3634 1313 
Q 3634 634 3220 271 
Q 2806 -91 2034 -91 
Q 1263 -91 848 271 
Q 434 634 434 1313 
Q 434 1759 690 2068 
Q 947 2378 1403 2484 
z
M 1172 3481 
Q 1172 3119 1398 2916 
Q 1625 2713 2034 2713 
Q 2441 2713 2670 2916 
Q 2900 3119 2900 3481 
Q 2900 3844 2670 4047 
Q 2441 4250 2034 4250 
Q 1625 4250 1398 4047 
Q 1172 3844 1172 3481 
z
" transform="scale(0.015625)"/>
      </defs>
      <use xlink:href="#DejaVuSans-38"/>
      <use xlink:href="#DejaVuSans-30" x="63.623047"/>
     </g>
    </g>
   </g>
   <g id="xtick_6">
    <g id="line2d_7">
     <path d="M 270.84226 320.290952 
L 268.120832 323.059807 
" style="fill: none; stroke: #000000; stroke-width: 0.8; stroke-linecap: square"/>
    </g>
    <g id="text_6">
     <!-- 100 -->
     <g transform="translate(253.027342 345.442966)scale(0.1 -0.1)">
      <defs>
       <path id="DejaVuSans-31" d="M 794 531 
L 1825 531 
L 1825 4091 
L 703 3866 
L 703 4441 
L 1819 4666 
L 2450 4666 
L 2450 531 
L 3481 531 
L 3481 0 
L 794 0 
L 794 531 
z
" transform="scale(0.015625)"/>
      </defs>
      <use xlink:href="#DejaVuSans-31"/>
      <use xlink:href="#DejaVuSans-30" x="63.623047"/>
      <use xlink:href="#DejaVuSans-30" x="127.246094"/>
     </g>
    </g>
   </g>
  </g>
  <g id="axis3d_2">
   <g id="line2d_8">
    <path d="M 380.958962 217.951644 
L 277.827622 323.78977 
" style="fill: none; stroke: #000000; stroke-width: 0.8; stroke-linecap: square"/>
   </g>
   <g id="Line3DCollection_2">
    <path d="M 80.469569 111.2377 
L 87.329738 257.33956 
L 281.12603 320.404792 
" style="fill: none; stroke: #b0b0b0; stroke-width: 0.8"/>
    <path d="M 104.29305 93.852409 
L 110.00165 238.335514 
L 301.680135 299.311224 
" style="fill: none; stroke: #b0b0b0; stroke-width: 0.8"/>
    <path d="M 127.319302 77.048899 
L 131.947458 219.940102 
L 321.541609 278.928465 
" style="fill: none; stroke: #b0b0b0; stroke-width: 0.8"/>
    <path d="M 149.587686 60.798447 
L 153.201494 202.124548 
L 340.744884 259.221181 
" style="fill: none; stroke: #b0b0b0; stroke-width: 0.8"/>
    <path d="M 171.135012 45.07419 
L 173.795959 184.861859 
L 359.322143 240.156343 
" style="fill: none; stroke: #b0b0b0; stroke-width: 0.8"/>
    <path d="M 191.995743 29.850979 
L 193.761087 168.126692 
L 377.303508 221.703039 
" style="fill: none; stroke: #b0b0b0; stroke-width: 0.8"/>
   </g>
   <g id="xtick_7">
    <g id="line2d_9">
     <path d="M 279.492637 319.873253 
L 284.397053 321.469249 
" style="fill: none; stroke: #000000; stroke-width: 0.8; stroke-linecap: square"/>
    </g>
    <g id="text_7">
     <!-- 0 -->
     <g transform="translate(290.863225 341.469596)scale(0.1 -0.1)">
      <use xlink:href="#DejaVuSans-30"/>
     </g>
    </g>
   </g>
   <g id="xtick_8">
    <g id="line2d_10">
     <path d="M 300.065999 298.797743 
L 304.912523 300.339493 
" style="fill: none; stroke: #000000; stroke-width: 0.8; stroke-linecap: square"/>
    </g>
    <g id="text_8">
     <!-- 20 -->
     <g transform="translate(308.023929 320.135553)scale(0.1 -0.1)">
      <use xlink:href="#DejaVuSans-32"/>
      <use xlink:href="#DejaVuSans-30" x="63.623047"/>
     </g>
    </g>
   </g>
   <g id="xtick_9">
    <g id="line2d_11">
     <path d="M 319.94637 278.432138 
L 324.736088 279.922362 
" style="fill: none; stroke: #000000; stroke-width: 0.8; stroke-linecap: square"/>
    </g>
    <g id="text_9">
     <!-- 40 -->
     <g transform="translate(327.680096 299.520743)scale(0.1 -0.1)">
      <use xlink:href="#DejaVuSans-34"/>
      <use xlink:href="#DejaVuSans-30" x="63.623047"/>
     </g>
    </g>
   </g>
   <g id="xtick_10">
    <g id="line2d_12">
     <path d="M 339.168185 258.741163 
L 343.902168 260.1824 
" style="fill: none; stroke: #000000; stroke-width: 0.8; stroke-linecap: square"/>
    </g>
    <g id="text_10">
     <!-- 60 -->
     <g transform="translate(346.68458 279.589399)scale(0.1 -0.1)">
      <use xlink:href="#DejaVuSans-36"/>
      <use xlink:href="#DejaVuSans-30" x="63.623047"/>
     </g>
    </g>
   </g>
   <g id="xtick_11">
    <g id="line2d_13">
     <path d="M 357.763634 239.691843 
L 362.442941 241.08647 
" style="fill: none; stroke: #000000; stroke-width: 0.8; stroke-linecap: square"/>
    </g>
    <g id="text_11">
     <!-- 80 -->
     <g transform="translate(365.069262 260.308086)scale(0.1 -0.1)">
      <use xlink:href="#DejaVuSans-38"/>
      <use xlink:href="#DejaVuSans-30" x="63.623047"/>
     </g>
    </g>
   </g>
   <g id="xtick_12">
    <g id="line2d_14">
     <path d="M 375.762842 221.253316 
L 380.388517 222.603558 
" style="fill: none; stroke: #000000; stroke-width: 0.8; stroke-linecap: square"/>
    </g>
    <g id="text_12">
     <!-- 100 -->
     <g transform="translate(379.682726 241.645513)scale(0.1 -0.1)">
      <use xlink:href="#DejaVuSans-31"/>
      <use xlink:href="#DejaVuSans-30" x="63.623047"/>
      <use xlink:href="#DejaVuSans-30" x="127.246094"/>
     </g>
    </g>
   </g>
  </g>
  <g id="axis3d_3">
   <g id="line2d_15">
    <path d="M 380.958962 217.951644 
L 387.494418 75.233988 
" style="fill: none; stroke: #000000; stroke-width: 0.8; stroke-linecap: square"/>
   </g>
   <g id="Line3DCollection_3">
    <path d="M 381.162337 213.510449 
L 197.774119 160.419315 
L 83.476212 255.839044 
" style="fill: none; stroke: #b0b0b0; stroke-width: 0.8"/>
    <path d="M 381.948595 196.340574 
L 197.582924 143.792482 
L 82.629444 238.255356 
" style="fill: none; stroke: #b0b0b0; stroke-width: 0.8"/>
    <path d="M 382.743363 178.984883 
L 197.389758 126.994299 
L 81.773164 220.474129 
" style="fill: none; stroke: #b0b0b0; stroke-width: 0.8"/>
    <path d="M 383.546778 161.440346 
L 197.194592 110.022102 
L 80.907209 202.492015 
" style="fill: none; stroke: #b0b0b0; stroke-width: 0.8"/>
    <path d="M 384.358983 143.703862 
L 196.997393 92.873175 
L 80.031415 184.305589 
" style="fill: none; stroke: #b0b0b0; stroke-width: 0.8"/>
    <path d="M 385.180123 125.772264 
L 196.79813 75.544742 
L 79.145613 165.911349 
" style="fill: none; stroke: #b0b0b0; stroke-width: 0.8"/>
    <path d="M 386.010346 107.642316 
L 196.59677 58.033971 
L 78.249632 147.305715 
" style="fill: none; stroke: #b0b0b0; stroke-width: 0.8"/>
    <path d="M 386.849804 89.310707 
L 196.39328 40.337967 
L 77.343294 128.485019 
" style="fill: none; stroke: #b0b0b0; stroke-width: 0.8"/>
   </g>
   <g id="xtick_13">
    <g id="line2d_16">
     <path d="M 379.623104 213.064839 
L 384.244468 214.40273 
" style="fill: none; stroke: #000000; stroke-width: 0.8; stroke-linecap: square"/>
    </g>
    <g id="text_13">
     <!-- 0 -->
     <g transform="translate(396.267247 218.508741)scale(0.1 -0.1)">
      <use xlink:href="#DejaVuSans-30"/>
     </g>
    </g>
   </g>
   <g id="xtick_14">
    <g id="line2d_17">
     <path d="M 380.400769 195.89941 
L 385.047955 197.223956 
" style="fill: none; stroke: #000000; stroke-width: 0.8; stroke-linecap: square"/>
    </g>
    <g id="text_14">
     <!-- 10 -->
     <g transform="translate(393.968612 201.364838)scale(0.1 -0.1)">
      <use xlink:href="#DejaVuSans-31"/>
      <use xlink:href="#DejaVuSans-30" x="63.623047"/>
     </g>
    </g>
   </g>
   <g id="xtick_15">
    <g id="line2d_18">
     <path d="M 381.186846 178.548289 
L 385.860145 179.859122 
" style="fill: none; stroke: #000000; stroke-width: 0.8; stroke-linecap: square"/>
    </g>
    <g id="text_15">
     <!-- 20 -->
     <g transform="translate(394.860758 184.035836)scale(0.1 -0.1)">
      <use xlink:href="#DejaVuSans-32"/>
      <use xlink:href="#DejaVuSans-30" x="63.623047"/>
     </g>
    </g>
   </g>
   <g id="xtick_16">
    <g id="line2d_19">
     <path d="M 381.981472 161.008447 
L 386.681179 162.305189 
" style="fill: none; stroke: #000000; stroke-width: 0.8; stroke-linecap: square"/>
    </g>
    <g id="text_16">
     <!-- 30 -->
     <g transform="translate(395.762588 166.518721)scale(0.1 -0.1)">
      <defs>
       <path id="DejaVuSans-33" d="M 2597 2516 
Q 3050 2419 3304 2112 
Q 3559 1806 3559 1356 
Q 3559 666 3084 287 
Q 2609 -91 1734 -91 
Q 1441 -91 1130 -33 
Q 819 25 488 141 
L 488 750 
Q 750 597 1062 519 
Q 1375 441 1716 441 
Q 2309 441 2620 675 
Q 2931 909 2931 1356 
Q 2931 1769 2642 2001 
Q 2353 2234 1838 2234 
L 1294 2234 
L 1294 2753 
L 1863 2753 
Q 2328 2753 2575 2939 
Q 2822 3125 2822 3475 
Q 2822 3834 2567 4026 
Q 2313 4219 1838 4219 
Q 1578 4219 1281 4162 
Q 984 4106 628 3988 
L 628 4550 
Q 988 4650 1302 4700 
Q 1616 4750 1894 4750 
Q 2613 4750 3031 4423 
Q 3450 4097 3450 3541 
Q 3450 3153 3228 2886 
Q 3006 2619 2597 2516 
z
" transform="scale(0.015625)"/>
      </defs>
      <use xlink:href="#DejaVuSans-33"/>
      <use xlink:href="#DejaVuSans-30" x="63.623047"/>
     </g>
    </g>
   </g>
   <g id="xtick_17">
    <g id="line2d_20">
     <path d="M 382.784789 143.276787 
L 387.511203 144.55905 
" style="fill: none; stroke: #000000; stroke-width: 0.8; stroke-linecap: square"/>
    </g>
    <g id="text_17">
     <!-- 40 -->
     <g transform="translate(396.674261 148.810412)scale(0.1 -0.1)">
      <use xlink:href="#DejaVuSans-34"/>
      <use xlink:href="#DejaVuSans-30" x="63.623047"/>
     </g>
    </g>
   </g>
   <g id="xtick_18">
    <g id="line2d_21">
     <path d="M 383.596939 125.350147 
L 388.350365 126.617533 
" style="fill: none; stroke: #000000; stroke-width: 0.8; stroke-linecap: square"/>
    </g>
    <g id="text_18">
     <!-- 50 -->
     <g transform="translate(397.595939 130.907763)scale(0.1 -0.1)">
      <defs>
       <path id="DejaVuSans-35" d="M 691 4666 
L 3169 4666 
L 3169 4134 
L 1269 4134 
L 1269 2991 
Q 1406 3038 1543 3061 
Q 1681 3084 1819 3084 
Q 2600 3084 3056 2656 
Q 3513 2228 3513 1497 
Q 3513 744 3044 326 
Q 2575 -91 1722 -91 
Q 1428 -91 1123 -41 
Q 819 9 494 109 
L 494 744 
Q 775 591 1075 516 
Q 1375 441 1709 441 
Q 2250 441 2565 725 
Q 2881 1009 2881 1497 
Q 2881 1984 2565 2268 
Q 2250 2553 1709 2553 
Q 1456 2553 1204 2497 
Q 953 2441 691 2322 
L 691 4666 
z
" transform="scale(0.015625)"/>
      </defs>
      <use xlink:href="#DejaVuSans-35"/>
      <use xlink:href="#DejaVuSans-30" x="63.623047"/>
     </g>
    </g>
   </g>
   <g id="xtick_19">
    <g id="line2d_22">
     <path d="M 384.41807 107.225291 
L 389.198817 108.477392 
" style="fill: none; stroke: #000000; stroke-width: 0.8; stroke-linecap: square"/>
    </g>
    <g id="text_19">
     <!-- 60 -->
     <g transform="translate(398.527788 112.807556)scale(0.1 -0.1)">
      <use xlink:href="#DejaVuSans-36"/>
      <use xlink:href="#DejaVuSans-30" x="63.623047"/>
     </g>
    </g>
   </g>
   <g id="xtick_20">
    <g id="line2d_23">
     <path d="M 385.24833 88.898914 
L 390.056715 90.135311 
" style="fill: none; stroke: #000000; stroke-width: 0.8; stroke-linecap: square"/>
    </g>
    <g id="text_20">
     <!-- 70 -->
     <g transform="translate(399.469977 94.506503)scale(0.1 -0.1)">
      <defs>
       <path id="DejaVuSans-37" d="M 525 4666 
L 3525 4666 
L 3525 4397 
L 1831 0 
L 1172 0 
L 2766 4134 
L 525 4134 
L 525 4666 
z
" transform="scale(0.015625)"/>
      </defs>
      <use xlink:href="#DejaVuSans-37"/>
      <use xlink:href="#DejaVuSans-30" x="63.623047"/>
     </g>
    </g>
   </g>
  </g>
  <g id="axes_1">
   <g id="line2d_24">
    <path d="M 178.891651 282.551071 
L 189.855924 272.501706 
L 200.637018 262.620234 
L 211.239487 252.902483 
L 221.667732 243.344417 
L 178.891651 282.551071 
L 189.855924 272.501706 
L 200.637018 262.620234 
L 211.239487 252.902483 
L 221.667732 243.344417 
L 178.891651 282.551071 
L 189.855924 272.501706 
L 200.637018 262.620234 
L 211.239487 252.902483 
L 221.667732 243.344417 
L 178.891651 282.551071 
L 189.855924 272.501706 
L 200.637018 262.620234 
L 211.239487 252.902483 
L 221.667732 243.344417 
L 178.891651 282.551071 
L 189.855924 272.501706 
L 200.637018 262.620234 
L 211.239487 252.902483 
L 221.667732 243.344417 
L 178.891651 282.551071 
L 189.855924 272.501706 
L 200.637018 262.620234 
L 211.239487 252.902483 
L 221.667732 243.344417 
L 178.891651 282.551071 
L 189.855924 272.501706 
L 200.637018 262.620234 
L 211.239487 252.902483 
L 221.667732 243.344417 
L 178.891651 282.551071 
L 189.855924 272.501706 
L 200.637018 262.620234 
L 211.239487 252.902483 
L 221.667732 243.344417 
" clip-path="url(#pe7b572f9e2)" style="fill: none; stroke: #008000; stroke-width: 1.5; stroke-linecap: square"/>
   </g>
   <g id="line2d_25">
    <path d="M 146.739931 209.045918 
L 163.607274 214.222194 
L 180.631326 219.446562 
L 197.814281 224.719694 
L 215.158376 230.042277 
L 146.739931 209.045918 
L 163.607274 214.222194 
L 180.631326 219.446562 
L 197.814281 224.719694 
L 215.158376 230.042277 
L 146.739931 209.045918 
L 163.607274 214.222194 
L 180.631326 219.446562 
L 197.814281 224.719694 
L 215.158376 230.042277 
L 146.739931 209.045918 
L 163.607274 214.222194 
L 180.631326 219.446562 
L 197.814281 224.719694 
L 215.158376 230.042277 
L 146.739931 209.045918 
L 163.607274 214.222194 
L 180.631326 219.446562 
L 197.814281 224.719694 
L 215.158376 230.042277 
L 146.739931 209.045918 
L 163.607274 214.222194 
L 180.631326 219.446562 
L 197.814281 224.719694 
L 215.158376 230.042277 
L 146.739931 209.045918 
L 163.607274 214.222194 
L 180.631326 219.446562 
L 197.814281 224.719694 
L 215.158376 230.042277 
L 146.739931 209.045918 
L 163.607274 214.222194 
L 180.631326 219.446562 
L 197.814281 224.719694 
L 215.158376 230.042277 
" clip-path="url(#pe7b572f9e2)" style="fill: none; stroke-dasharray: 5.55,2.4; stroke-dashoffset: 0; stroke: #008000; stroke-width: 1.5"/>
   </g>
   <g id="line2d_26">
    <path d="M 231.926014 233.942132 
L 242.018453 224.691851 
L 251.94904 215.589916 
L 261.721636 206.632789 
L 271.339983 197.81704 
L 231.926014 233.942132 
L 242.018453 224.691851 
L 251.94904 215.589916 
L 261.721636 206.632789 
L 271.339983 197.81704 
L 231.926014 233.942132 
L 242.018453 224.691851 
L 251.94904 215.589916 
L 261.721636 206.632789 
L 271.339983 197.81704 
L 231.926014 233.942132 
L 242.018453 224.691851 
L 251.94904 215.589916 
L 261.721636 206.632789 
L 271.339983 197.81704 
L 231.926014 233.942132 
L 242.018453 224.691851 
L 251.94904 215.589916 
L 261.721636 206.632789 
L 271.339983 197.81704 
L 231.926014 233.942132 
L 242.018453 224.691851 
L 251.94904 215.589916 
L 261.721636 206.632789 
L 271.339983 197.81704 
L 231.926014 233.942132 
L 242.018453 224.691851 
L 251.94904 215.589916 
L 261.721636 206.632789 
L 271.339983 197.81704 
L 231.926014 233.942132 
L 242.018453 224.691851 
L 251.94904 215.589916 
L 261.721636 206.632789 
L 271.339983 197.81704 
" clip-path="url(#pe7b572f9e2)" style="fill: none; stroke: #00bfbf; stroke-width: 1.5; stroke-linecap: square"/>
   </g>
   <g id="line2d_27">
    <path d="M 147.802327 208.154198 
L 164.66108 213.322212 
L 181.676337 218.538202 
L 198.850287 223.80284 
L 216.185161 229.116808 
L 147.802327 208.154198 
L 164.66108 213.322212 
L 181.676337 218.538202 
L 198.850287 223.80284 
L 216.185161 229.116808 
L 147.802327 208.154198 
L 164.66108 213.322212 
L 181.676337 218.538202 
L 198.850287 223.80284 
L 216.185161 229.116808 
L 147.802327 208.154198 
L 164.66108 213.322212 
L 181.676337 218.538202 
L 198.850287 223.80284 
L 216.185161 229.116808 
L 147.802327 208.154198 
L 164.66108 213.322212 
L 181.676337 218.538202 
L 198.850287 223.80284 
L 216.185161 229.116808 
L 147.802327 208.154198 
L 164.66108 213.322212 
L 181.676337 218.538202 
L 198.850287 223.80284 
L 216.185161 229.116808 
L 147.802327 208.154198 
L 164.66108 213.322212 
L 181.676337 218.538202 
L 198.850287 223.80284 
L 216.185161 229.116808 
L 147.802327 208.154198 
L 164.66108 213.322212 
L 181.676337 218.538202 
L 198.850287 223.80284 
L 216.185161 229.116808 
" clip-path="url(#pe7b572f9e2)" style="fill: none; stroke-dasharray: 5.55,2.4; stroke-dashoffset: 0; stroke: #00bfbf; stroke-width: 1.5"/>
   </g>
   <g id="line2d_28">
    <path d="M 180.69752 283.136488 
L 191.651908 273.077299 
L 202.423195 263.186249 
L 213.015933 253.459156 
L 223.434525 243.891978 
L 180.69752 283.136488 
L 191.651908 273.077299 
L 202.423195 263.186249 
L 213.015933 253.459156 
L 223.434525 243.891978 
L 180.69752 283.136488 
L 191.651908 273.077299 
L 202.423195 263.186249 
L 213.015933 253.459156 
L 223.434525 243.891978 
L 180.69752 283.136488 
L 191.651908 273.077299 
L 202.423195 263.186249 
L 213.015933 253.459156 
L 223.434525 243.891978 
L 180.69752 283.136488 
L 191.651908 273.077299 
L 202.423195 263.186249 
L 213.015933 253.459156 
L 223.434525 243.891978 
L 180.69752 283.136488 
L 191.651908 273.077299 
L 202.423195 263.186249 
L 213.015933 253.459156 
L 223.434525 243.891978 
L 180.69752 283.136488 
L 191.651908 273.077299 
L 202.423195 263.186249 
L 213.015933 253.459156 
L 223.434525 243.891978 
L 180.69752 283.136488 
L 191.651908 273.077299 
L 202.423195 263.186249 
L 213.015933 253.459156 
L 223.434525 243.891978 
" clip-path="url(#pe7b572f9e2)" style="fill: none; stroke: #bf00bf; stroke-width: 1.5; stroke-linecap: square"/>
   </g>
   <g id="line2d_29">
    <path d="M 232.665886 235.415009 
L 250.339133 240.838603 
L 268.180481 246.313783 
L 286.19234 251.841291 
L 304.377166 257.421879 
L 232.665886 235.415009 
L 250.339133 240.838603 
L 268.180481 246.313783 
L 286.19234 251.841291 
L 304.377166 257.421879 
L 232.665886 235.415009 
L 250.339133 240.838603 
L 268.180481 246.313783 
L 286.19234 251.841291 
L 304.377166 257.421879 
L 232.665886 235.415009 
L 250.339133 240.838603 
L 268.180481 246.313783 
L 286.19234 251.841291 
L 304.377166 257.421879 
L 232.665886 235.415009 
L 250.339133 240.838603 
L 268.180481 246.313783 
L 286.19234 251.841291 
L 304.377166 257.421879 
L 232.665886 235.415009 
L 250.339133 240.838603 
L 268.180481 246.313783 
L 286.19234 251.841291 
L 304.377166 257.421879 
L 232.665886 235.415009 
L 250.339133 240.838603 
L 268.180481 246.313783 
L 286.19234 251.841291 
L 304.377166 257.421879 
L 232.665886 235.415009 
L 250.339133 240.838603 
L 268.180481 246.313783 
L 286.19234 251.841291 
L 304.377166 257.421879 
" clip-path="url(#pe7b572f9e2)" style="fill: none; stroke-dasharray: 5.55,2.4; stroke-dashoffset: 0; stroke: #bf00bf; stroke-width: 1.5"/>
   </g>
   <g id="line2d_30">
    <path d="M 233.68323 234.480803 
L 243.766171 225.221846 
L 253.687336 216.111444 
L 263.450589 207.146051 
L 273.059669 198.322231 
L 233.68323 234.480803 
L 243.766171 225.221846 
L 253.687336 216.111444 
L 263.450589 207.146051 
L 273.059669 198.322231 
L 233.68323 234.480803 
L 243.766171 225.221846 
L 253.687336 216.111444 
L 263.450589 207.146051 
L 273.059669 198.322231 
L 233.68323 234.480803 
L 243.766171 225.221846 
L 253.687336 216.111444 
L 263.450589 207.146051 
L 273.059669 198.322231 
L 233.68323 234.480803 
L 243.766171 225.221846 
L 253.687336 216.111444 
L 263.450589 207.146051 
L 273.059669 198.322231 
L 233.68323 234.480803 
L 243.766171 225.221846 
L 253.687336 216.111444 
L 263.450589 207.146051 
L 273.059669 198.322231 
L 233.68323 234.480803 
L 243.766171 225.221846 
L 253.687336 216.111444 
L 263.450589 207.146051 
L 273.059669 198.322231 
L 233.68323 234.480803 
L 243.766171 225.221846 
L 253.687336 216.111444 
L 263.450589 207.146051 
L 273.059669 198.322231 
" clip-path="url(#pe7b572f9e2)" style="fill: none; stroke: #0000ff; stroke-width: 1.5; stroke-linecap: square"/>
   </g>
   <g id="line2d_31">
    <path d="M 233.68323 234.480803 
L 251.346811 239.895535 
L 269.178263 245.361728 
L 287.179991 250.880119 
L 305.354444 256.451458 
L 233.68323 234.480803 
L 251.346811 239.895535 
L 269.178263 245.361728 
L 287.179991 250.880119 
L 305.354444 256.451458 
L 233.68323 234.480803 
L 251.346811 239.895535 
L 269.178263 245.361728 
L 287.179991 250.880119 
L 305.354444 256.451458 
L 233.68323 234.480803 
L 251.346811 239.895535 
L 269.178263 245.361728 
L 287.179991 250.880119 
L 305.354444 256.451458 
L 233.68323 234.480803 
L 251.346811 239.895535 
L 269.178263 245.361728 
L 287.179991 250.880119 
L 305.354444 256.451458 
L 233.68323 234.480803 
L 251.346811 239.895535 
L 269.178263 245.361728 
L 287.179991 250.880119 
L 305.354444 256.451458 
L 233.68323 234.480803 
L 251.346811 239.895535 
L 269.178263 245.361728 
L 287.179991 250.880119 
L 305.354444 256.451458 
L 233.68323 234.480803 
L 251.346811 239.895535 
L 269.178263 245.361728 
L 287.179991 250.880119 
L 305.354444 256.451458 
" clip-path="url(#pe7b572f9e2)" style="fill: none; stroke-dasharray: 5.55,2.4; stroke-dashoffset: 0; stroke: #0000ff; stroke-width: 1.5"/>
   </g>
   <g id="Path3DCollection_1">
    <defs>
     <path id="m9b3473e75f" d="M 0 2.236068 
C 0.593012 2.236068 1.161816 2.000462 1.581139 1.581139 
C 2.000462 1.161816 2.236068 0.593012 2.236068 0 
C 2.236068 -0.593012 2.000462 -1.161816 1.581139 -1.581139 
C 1.161816 -2.000462 0.593012 -2.236068 0 -2.236068 
C -0.593012 -2.236068 -1.161816 -2.000462 -1.581139 -1.581139 
C -2.000462 -1.161816 -2.236068 -0.593012 -2.236068 0 
C -2.236068 0.593012 -2.000462 1.161816 -1.581139 1.581139 
C -1.161816 2.000462 -0.593012 2.236068 0 2.236068 
z
" style="stroke: #ff0000"/>
    </defs>
    <g clip-path="url(#pe7b572f9e2)">
     <use xlink:href="#m9b3473e75f" x="169.019324" y="203.753465" style="fill: #ff0000; stroke: #ff0000"/>
    </g>
   </g>
   <g id="Path3DCollection_2">
    <g clip-path="url(#pe7b572f9e2)">
     <use xlink:href="#m9b3473e75f" x="168.984254" y="202.054415" style="fill: #ff0000; stroke: #ff0000"/>
    </g>
   </g>
   <g id="Path3DCollection_3">
    <g clip-path="url(#pe7b572f9e2)">
     <use xlink:href="#m9b3473e75f" x="280.848984" y="236.467211" style="fill: #ff0000; stroke: #ff0000"/>
    </g>
   </g>
   <g id="legend_1">
    <g id="patch_6">
     <path d="M 233.225 127.65 
L 396.2 127.65 
Q 398.2 127.65 398.2 125.65 
L 398.2 7 
Q 398.2 5 396.2 5 
L 233.225 5 
Q 231.225 5 231.225 7 
L 231.225 125.65 
Q 231.225 127.65 233.225 127.65 
z
" style="fill: #ffffff; opacity: 0.8; stroke: #cccccc; stroke-linejoin: miter"/>
    </g>
    <g id="line2d_32">
     <path d="M 235.225 13.098437 
L 245.225 13.098437 
L 255.225 13.098437 
" style="fill: none; stroke: #008000; stroke-width: 1.5; stroke-linecap: square"/>
    </g>
    <g id="text_21">
     <!-- ('[0, 0]', 'right_entrance') -->
     <g transform="translate(263.225 16.598437)scale(0.1 -0.1)">
      <defs>
       <path id="DejaVuSans-28" d="M 1984 4856 
Q 1566 4138 1362 3434 
Q 1159 2731 1159 2009 
Q 1159 1288 1364 580 
Q 1569 -128 1984 -844 
L 1484 -844 
Q 1016 -109 783 600 
Q 550 1309 550 2009 
Q 550 2706 781 3412 
Q 1013 4119 1484 4856 
L 1984 4856 
z
" transform="scale(0.015625)"/>
       <path id="DejaVuSans-27" d="M 1147 4666 
L 1147 2931 
L 616 2931 
L 616 4666 
L 1147 4666 
z
" transform="scale(0.015625)"/>
       <path id="DejaVuSans-5b" d="M 550 4863 
L 1875 4863 
L 1875 4416 
L 1125 4416 
L 1125 -397 
L 1875 -397 
L 1875 -844 
L 550 -844 
L 550 4863 
z
" transform="scale(0.015625)"/>
       <path id="DejaVuSans-2c" d="M 750 794 
L 1409 794 
L 1409 256 
L 897 -744 
L 494 -744 
L 750 256 
L 750 794 
z
" transform="scale(0.015625)"/>
       <path id="DejaVuSans-20" transform="scale(0.015625)"/>
       <path id="DejaVuSans-5d" d="M 1947 4863 
L 1947 -844 
L 622 -844 
L 622 -397 
L 1369 -397 
L 1369 4416 
L 622 4416 
L 622 4863 
L 1947 4863 
z
" transform="scale(0.015625)"/>
       <path id="DejaVuSans-72" d="M 2631 2963 
Q 2534 3019 2420 3045 
Q 2306 3072 2169 3072 
Q 1681 3072 1420 2755 
Q 1159 2438 1159 1844 
L 1159 0 
L 581 0 
L 581 3500 
L 1159 3500 
L 1159 2956 
Q 1341 3275 1631 3429 
Q 1922 3584 2338 3584 
Q 2397 3584 2469 3576 
Q 2541 3569 2628 3553 
L 2631 2963 
z
" transform="scale(0.015625)"/>
       <path id="DejaVuSans-69" d="M 603 3500 
L 1178 3500 
L 1178 0 
L 603 0 
L 603 3500 
z
M 603 4863 
L 1178 4863 
L 1178 4134 
L 603 4134 
L 603 4863 
z
" transform="scale(0.015625)"/>
       <path id="DejaVuSans-67" d="M 2906 1791 
Q 2906 2416 2648 2759 
Q 2391 3103 1925 3103 
Q 1463 3103 1205 2759 
Q 947 2416 947 1791 
Q 947 1169 1205 825 
Q 1463 481 1925 481 
Q 2391 481 2648 825 
Q 2906 1169 2906 1791 
z
M 3481 434 
Q 3481 -459 3084 -895 
Q 2688 -1331 1869 -1331 
Q 1566 -1331 1297 -1286 
Q 1028 -1241 775 -1147 
L 775 -588 
Q 1028 -725 1275 -790 
Q 1522 -856 1778 -856 
Q 2344 -856 2625 -561 
Q 2906 -266 2906 331 
L 2906 616 
Q 2728 306 2450 153 
Q 2172 0 1784 0 
Q 1141 0 747 490 
Q 353 981 353 1791 
Q 353 2603 747 3093 
Q 1141 3584 1784 3584 
Q 2172 3584 2450 3431 
Q 2728 3278 2906 2969 
L 2906 3500 
L 3481 3500 
L 3481 434 
z
" transform="scale(0.015625)"/>
       <path id="DejaVuSans-68" d="M 3513 2113 
L 3513 0 
L 2938 0 
L 2938 2094 
Q 2938 2591 2744 2837 
Q 2550 3084 2163 3084 
Q 1697 3084 1428 2787 
Q 1159 2491 1159 1978 
L 1159 0 
L 581 0 
L 581 4863 
L 1159 4863 
L 1159 2956 
Q 1366 3272 1645 3428 
Q 1925 3584 2291 3584 
Q 2894 3584 3203 3211 
Q 3513 2838 3513 2113 
z
" transform="scale(0.015625)"/>
       <path id="DejaVuSans-74" d="M 1172 4494 
L 1172 3500 
L 2356 3500 
L 2356 3053 
L 1172 3053 
L 1172 1153 
Q 1172 725 1289 603 
Q 1406 481 1766 481 
L 2356 481 
L 2356 0 
L 1766 0 
Q 1100 0 847 248 
Q 594 497 594 1153 
L 594 3053 
L 172 3053 
L 172 3500 
L 594 3500 
L 594 4494 
L 1172 4494 
z
" transform="scale(0.015625)"/>
       <path id="DejaVuSans-5f" d="M 3263 -1063 
L 3263 -1509 
L -63 -1509 
L -63 -1063 
L 3263 -1063 
z
" transform="scale(0.015625)"/>
       <path id="DejaVuSans-65" d="M 3597 1894 
L 3597 1613 
L 953 1613 
Q 991 1019 1311 708 
Q 1631 397 2203 397 
Q 2534 397 2845 478 
Q 3156 559 3463 722 
L 3463 178 
Q 3153 47 2828 -22 
Q 2503 -91 2169 -91 
Q 1331 -91 842 396 
Q 353 884 353 1716 
Q 353 2575 817 3079 
Q 1281 3584 2069 3584 
Q 2775 3584 3186 3129 
Q 3597 2675 3597 1894 
z
M 3022 2063 
Q 3016 2534 2758 2815 
Q 2500 3097 2075 3097 
Q 1594 3097 1305 2825 
Q 1016 2553 972 2059 
L 3022 2063 
z
" transform="scale(0.015625)"/>
       <path id="DejaVuSans-6e" d="M 3513 2113 
L 3513 0 
L 2938 0 
L 2938 2094 
Q 2938 2591 2744 2837 
Q 2550 3084 2163 3084 
Q 1697 3084 1428 2787 
Q 1159 2491 1159 1978 
L 1159 0 
L 581 0 
L 581 3500 
L 1159 3500 
L 1159 2956 
Q 1366 3272 1645 3428 
Q 1925 3584 2291 3584 
Q 2894 3584 3203 3211 
Q 3513 2838 3513 2113 
z
" transform="scale(0.015625)"/>
       <path id="DejaVuSans-61" d="M 2194 1759 
Q 1497 1759 1228 1600 
Q 959 1441 959 1056 
Q 959 750 1161 570 
Q 1363 391 1709 391 
Q 2188 391 2477 730 
Q 2766 1069 2766 1631 
L 2766 1759 
L 2194 1759 
z
M 3341 1997 
L 3341 0 
L 2766 0 
L 2766 531 
Q 2569 213 2275 61 
Q 1981 -91 1556 -91 
Q 1019 -91 701 211 
Q 384 513 384 1019 
Q 384 1609 779 1909 
Q 1175 2209 1959 2209 
L 2766 2209 
L 2766 2266 
Q 2766 2663 2505 2880 
Q 2244 3097 1772 3097 
Q 1472 3097 1187 3025 
Q 903 2953 641 2809 
L 641 3341 
Q 956 3463 1253 3523 
Q 1550 3584 1831 3584 
Q 2591 3584 2966 3190 
Q 3341 2797 3341 1997 
z
" transform="scale(0.015625)"/>
       <path id="DejaVuSans-63" d="M 3122 3366 
L 3122 2828 
Q 2878 2963 2633 3030 
Q 2388 3097 2138 3097 
Q 1578 3097 1268 2742 
Q 959 2388 959 1747 
Q 959 1106 1268 751 
Q 1578 397 2138 397 
Q 2388 397 2633 464 
Q 2878 531 3122 666 
L 3122 134 
Q 2881 22 2623 -34 
Q 2366 -91 2075 -91 
Q 1284 -91 818 406 
Q 353 903 353 1747 
Q 353 2603 823 3093 
Q 1294 3584 2113 3584 
Q 2378 3584 2631 3529 
Q 2884 3475 3122 3366 
z
" transform="scale(0.015625)"/>
       <path id="DejaVuSans-29" d="M 513 4856 
L 1013 4856 
Q 1481 4119 1714 3412 
Q 1947 2706 1947 2009 
Q 1947 1309 1714 600 
Q 1481 -109 1013 -844 
L 513 -844 
Q 928 -128 1133 580 
Q 1338 1288 1338 2009 
Q 1338 2731 1133 3434 
Q 928 4138 513 4856 
z
" transform="scale(0.015625)"/>
      </defs>
      <use xlink:href="#DejaVuSans-28"/>
      <use xlink:href="#DejaVuSans-27" x="39.013672"/>
      <use xlink:href="#DejaVuSans-5b" x="66.503906"/>
      <use xlink:href="#DejaVuSans-30" x="105.517578"/>
      <use xlink:href="#DejaVuSans-2c" x="169.140625"/>
      <use xlink:href="#DejaVuSans-20" x="200.927734"/>
      <use xlink:href="#DejaVuSans-30" x="232.714844"/>
      <use xlink:href="#DejaVuSans-5d" x="296.337891"/>
      <use xlink:href="#DejaVuSans-27" x="335.351562"/>
      <use xlink:href="#DejaVuSans-2c" x="362.841797"/>
      <use xlink:href="#DejaVuSans-20" x="394.628906"/>
      <use xlink:href="#DejaVuSans-27" x="426.416016"/>
      <use xlink:href="#DejaVuSans-72" x="453.90625"/>
      <use xlink:href="#DejaVuSans-69" x="495.019531"/>
      <use xlink:href="#DejaVuSans-67" x="522.802734"/>
      <use xlink:href="#DejaVuSans-68" x="586.279297"/>
      <use xlink:href="#DejaVuSans-74" x="649.658203"/>
      <use xlink:href="#DejaVuSans-5f" x="688.867188"/>
      <use xlink:href="#DejaVuSans-65" x="738.867188"/>
      <use xlink:href="#DejaVuSans-6e" x="800.390625"/>
      <use xlink:href="#DejaVuSans-74" x="863.769531"/>
      <use xlink:href="#DejaVuSans-72" x="902.978516"/>
      <use xlink:href="#DejaVuSans-61" x="944.091797"/>
      <use xlink:href="#DejaVuSans-6e" x="1005.371094"/>
      <use xlink:href="#DejaVuSans-63" x="1068.75"/>
      <use xlink:href="#DejaVuSans-65" x="1123.730469"/>
      <use xlink:href="#DejaVuSans-27" x="1185.253906"/>
      <use xlink:href="#DejaVuSans-29" x="1212.744141"/>
     </g>
    </g>
    <g id="line2d_33">
     <path d="M 235.225 28.054688 
L 245.225 28.054688 
L 255.225 28.054688 
" style="fill: none; stroke-dasharray: 5.55,2.4; stroke-dashoffset: 0; stroke: #008000; stroke-width: 1.5"/>
    </g>
    <g id="text_22">
     <!-- ('[0, 0]', 'upper_entrance') -->
     <g transform="translate(263.225 31.554688)scale(0.1 -0.1)">
      <defs>
       <path id="DejaVuSans-75" d="M 544 1381 
L 544 3500 
L 1119 3500 
L 1119 1403 
Q 1119 906 1312 657 
Q 1506 409 1894 409 
Q 2359 409 2629 706 
Q 2900 1003 2900 1516 
L 2900 3500 
L 3475 3500 
L 3475 0 
L 2900 0 
L 2900 538 
Q 2691 219 2414 64 
Q 2138 -91 1772 -91 
Q 1169 -91 856 284 
Q 544 659 544 1381 
z
M 1991 3584 
L 1991 3584 
z
" transform="scale(0.015625)"/>
       <path id="DejaVuSans-70" d="M 1159 525 
L 1159 -1331 
L 581 -1331 
L 581 3500 
L 1159 3500 
L 1159 2969 
Q 1341 3281 1617 3432 
Q 1894 3584 2278 3584 
Q 2916 3584 3314 3078 
Q 3713 2572 3713 1747 
Q 3713 922 3314 415 
Q 2916 -91 2278 -91 
Q 1894 -91 1617 61 
Q 1341 213 1159 525 
z
M 3116 1747 
Q 3116 2381 2855 2742 
Q 2594 3103 2138 3103 
Q 1681 3103 1420 2742 
Q 1159 2381 1159 1747 
Q 1159 1113 1420 752 
Q 1681 391 2138 391 
Q 2594 391 2855 752 
Q 3116 1113 3116 1747 
z
" transform="scale(0.015625)"/>
      </defs>
      <use xlink:href="#DejaVuSans-28"/>
      <use xlink:href="#DejaVuSans-27" x="39.013672"/>
      <use xlink:href="#DejaVuSans-5b" x="66.503906"/>
      <use xlink:href="#DejaVuSans-30" x="105.517578"/>
      <use xlink:href="#DejaVuSans-2c" x="169.140625"/>
      <use xlink:href="#DejaVuSans-20" x="200.927734"/>
      <use xlink:href="#DejaVuSans-30" x="232.714844"/>
      <use xlink:href="#DejaVuSans-5d" x="296.337891"/>
      <use xlink:href="#DejaVuSans-27" x="335.351562"/>
      <use xlink:href="#DejaVuSans-2c" x="362.841797"/>
      <use xlink:href="#DejaVuSans-20" x="394.628906"/>
      <use xlink:href="#DejaVuSans-27" x="426.416016"/>
      <use xlink:href="#DejaVuSans-75" x="453.90625"/>
      <use xlink:href="#DejaVuSans-70" x="517.285156"/>
      <use xlink:href="#DejaVuSans-70" x="580.761719"/>
      <use xlink:href="#DejaVuSans-65" x="644.238281"/>
      <use xlink:href="#DejaVuSans-72" x="705.761719"/>
      <use xlink:href="#DejaVuSans-5f" x="746.875"/>
      <use xlink:href="#DejaVuSans-65" x="796.875"/>
      <use xlink:href="#DejaVuSans-6e" x="858.398438"/>
      <use xlink:href="#DejaVuSans-74" x="921.777344"/>
      <use xlink:href="#DejaVuSans-72" x="960.986328"/>
      <use xlink:href="#DejaVuSans-61" x="1002.099609"/>
      <use xlink:href="#DejaVuSans-6e" x="1063.378906"/>
      <use xlink:href="#DejaVuSans-63" x="1126.757812"/>
      <use xlink:href="#DejaVuSans-65" x="1181.738281"/>
      <use xlink:href="#DejaVuSans-27" x="1243.261719"/>
      <use xlink:href="#DejaVuSans-29" x="1270.751953"/>
     </g>
    </g>
    <g id="line2d_34">
     <path d="M 235.225 43.010938 
L 245.225 43.010938 
L 255.225 43.010938 
" style="fill: none; stroke: #00bfbf; stroke-width: 1.5; stroke-linecap: square"/>
    </g>
    <g id="text_23">
     <!-- ('[0, 1]', 'right_entrance') -->
     <g transform="translate(263.225 46.510938)scale(0.1 -0.1)">
      <use xlink:href="#DejaVuSans-28"/>
      <use xlink:href="#DejaVuSans-27" x="39.013672"/>
      <use xlink:href="#DejaVuSans-5b" x="66.503906"/>
      <use xlink:href="#DejaVuSans-30" x="105.517578"/>
      <use xlink:href="#DejaVuSans-2c" x="169.140625"/>
      <use xlink:href="#DejaVuSans-20" x="200.927734"/>
      <use xlink:href="#DejaVuSans-31" x="232.714844"/>
      <use xlink:href="#DejaVuSans-5d" x="296.337891"/>
      <use xlink:href="#DejaVuSans-27" x="335.351562"/>
      <use xlink:href="#DejaVuSans-2c" x="362.841797"/>
      <use xlink:href="#DejaVuSans-20" x="394.628906"/>
      <use xlink:href="#DejaVuSans-27" x="426.416016"/>
      <use xlink:href="#DejaVuSans-72" x="453.90625"/>
      <use xlink:href="#DejaVuSans-69" x="495.019531"/>
      <use xlink:href="#DejaVuSans-67" x="522.802734"/>
      <use xlink:href="#DejaVuSans-68" x="586.279297"/>
      <use xlink:href="#DejaVuSans-74" x="649.658203"/>
      <use xlink:href="#DejaVuSans-5f" x="688.867188"/>
      <use xlink:href="#DejaVuSans-65" x="738.867188"/>
      <use xlink:href="#DejaVuSans-6e" x="800.390625"/>
      <use xlink:href="#DejaVuSans-74" x="863.769531"/>
      <use xlink:href="#DejaVuSans-72" x="902.978516"/>
      <use xlink:href="#DejaVuSans-61" x="944.091797"/>
      <use xlink:href="#DejaVuSans-6e" x="1005.371094"/>
      <use xlink:href="#DejaVuSans-63" x="1068.75"/>
      <use xlink:href="#DejaVuSans-65" x="1123.730469"/>
      <use xlink:href="#DejaVuSans-27" x="1185.253906"/>
      <use xlink:href="#DejaVuSans-29" x="1212.744141"/>
     </g>
    </g>
    <g id="line2d_35">
     <path d="M 235.225 57.967187 
L 245.225 57.967187 
L 255.225 57.967187 
" style="fill: none; stroke-dasharray: 5.55,2.4; stroke-dashoffset: 0; stroke: #00bfbf; stroke-width: 1.5"/>
    </g>
    <g id="text_24">
     <!-- ('[0, 1]', 'lower_entrance') -->
     <g transform="translate(263.225 61.467187)scale(0.1 -0.1)">
      <defs>
       <path id="DejaVuSans-6c" d="M 603 4863 
L 1178 4863 
L 1178 0 
L 603 0 
L 603 4863 
z
" transform="scale(0.015625)"/>
       <path id="DejaVuSans-6f" d="M 1959 3097 
Q 1497 3097 1228 2736 
Q 959 2375 959 1747 
Q 959 1119 1226 758 
Q 1494 397 1959 397 
Q 2419 397 2687 759 
Q 2956 1122 2956 1747 
Q 2956 2369 2687 2733 
Q 2419 3097 1959 3097 
z
M 1959 3584 
Q 2709 3584 3137 3096 
Q 3566 2609 3566 1747 
Q 3566 888 3137 398 
Q 2709 -91 1959 -91 
Q 1206 -91 779 398 
Q 353 888 353 1747 
Q 353 2609 779 3096 
Q 1206 3584 1959 3584 
z
" transform="scale(0.015625)"/>
       <path id="DejaVuSans-77" d="M 269 3500 
L 844 3500 
L 1563 769 
L 2278 3500 
L 2956 3500 
L 3675 769 
L 4391 3500 
L 4966 3500 
L 4050 0 
L 3372 0 
L 2619 2869 
L 1863 0 
L 1184 0 
L 269 3500 
z
" transform="scale(0.015625)"/>
      </defs>
      <use xlink:href="#DejaVuSans-28"/>
      <use xlink:href="#DejaVuSans-27" x="39.013672"/>
      <use xlink:href="#DejaVuSans-5b" x="66.503906"/>
      <use xlink:href="#DejaVuSans-30" x="105.517578"/>
      <use xlink:href="#DejaVuSans-2c" x="169.140625"/>
      <use xlink:href="#DejaVuSans-20" x="200.927734"/>
      <use xlink:href="#DejaVuSans-31" x="232.714844"/>
      <use xlink:href="#DejaVuSans-5d" x="296.337891"/>
      <use xlink:href="#DejaVuSans-27" x="335.351562"/>
      <use xlink:href="#DejaVuSans-2c" x="362.841797"/>
      <use xlink:href="#DejaVuSans-20" x="394.628906"/>
      <use xlink:href="#DejaVuSans-27" x="426.416016"/>
      <use xlink:href="#DejaVuSans-6c" x="453.90625"/>
      <use xlink:href="#DejaVuSans-6f" x="481.689453"/>
      <use xlink:href="#DejaVuSans-77" x="542.871094"/>
      <use xlink:href="#DejaVuSans-65" x="624.658203"/>
      <use xlink:href="#DejaVuSans-72" x="686.181641"/>
      <use xlink:href="#DejaVuSans-5f" x="727.294922"/>
      <use xlink:href="#DejaVuSans-65" x="777.294922"/>
      <use xlink:href="#DejaVuSans-6e" x="838.818359"/>
      <use xlink:href="#DejaVuSans-74" x="902.197266"/>
      <use xlink:href="#DejaVuSans-72" x="941.40625"/>
      <use xlink:href="#DejaVuSans-61" x="982.519531"/>
      <use xlink:href="#DejaVuSans-6e" x="1043.798828"/>
      <use xlink:href="#DejaVuSans-63" x="1107.177734"/>
      <use xlink:href="#DejaVuSans-65" x="1162.158203"/>
      <use xlink:href="#DejaVuSans-27" x="1223.681641"/>
      <use xlink:href="#DejaVuSans-29" x="1251.171875"/>
     </g>
    </g>
    <g id="line2d_36">
     <path d="M 235.225 72.923437 
L 245.225 72.923437 
L 255.225 72.923437 
" style="fill: none; stroke: #bf00bf; stroke-width: 1.5; stroke-linecap: square"/>
    </g>
    <g id="text_25">
     <!-- ('[1, 0]', 'left_entrance') -->
     <g transform="translate(263.225 76.423437)scale(0.1 -0.1)">
      <defs>
       <path id="DejaVuSans-66" d="M 2375 4863 
L 2375 4384 
L 1825 4384 
Q 1516 4384 1395 4259 
Q 1275 4134 1275 3809 
L 1275 3500 
L 2222 3500 
L 2222 3053 
L 1275 3053 
L 1275 0 
L 697 0 
L 697 3053 
L 147 3053 
L 147 3500 
L 697 3500 
L 697 3744 
Q 697 4328 969 4595 
Q 1241 4863 1831 4863 
L 2375 4863 
z
" transform="scale(0.015625)"/>
      </defs>
      <use xlink:href="#DejaVuSans-28"/>
      <use xlink:href="#DejaVuSans-27" x="39.013672"/>
      <use xlink:href="#DejaVuSans-5b" x="66.503906"/>
      <use xlink:href="#DejaVuSans-31" x="105.517578"/>
      <use xlink:href="#DejaVuSans-2c" x="169.140625"/>
      <use xlink:href="#DejaVuSans-20" x="200.927734"/>
      <use xlink:href="#DejaVuSans-30" x="232.714844"/>
      <use xlink:href="#DejaVuSans-5d" x="296.337891"/>
      <use xlink:href="#DejaVuSans-27" x="335.351562"/>
      <use xlink:href="#DejaVuSans-2c" x="362.841797"/>
      <use xlink:href="#DejaVuSans-20" x="394.628906"/>
      <use xlink:href="#DejaVuSans-27" x="426.416016"/>
      <use xlink:href="#DejaVuSans-6c" x="453.90625"/>
      <use xlink:href="#DejaVuSans-65" x="481.689453"/>
      <use xlink:href="#DejaVuSans-66" x="543.212891"/>
      <use xlink:href="#DejaVuSans-74" x="576.667969"/>
      <use xlink:href="#DejaVuSans-5f" x="615.876953"/>
      <use xlink:href="#DejaVuSans-65" x="665.876953"/>
      <use xlink:href="#DejaVuSans-6e" x="727.400391"/>
      <use xlink:href="#DejaVuSans-74" x="790.779297"/>
      <use xlink:href="#DejaVuSans-72" x="829.988281"/>
      <use xlink:href="#DejaVuSans-61" x="871.101562"/>
      <use xlink:href="#DejaVuSans-6e" x="932.380859"/>
      <use xlink:href="#DejaVuSans-63" x="995.759766"/>
      <use xlink:href="#DejaVuSans-65" x="1050.740234"/>
      <use xlink:href="#DejaVuSans-27" x="1112.263672"/>
      <use xlink:href="#DejaVuSans-29" x="1139.753906"/>
     </g>
    </g>
    <g id="line2d_37">
     <path d="M 235.225 87.879687 
L 245.225 87.879687 
L 255.225 87.879687 
" style="fill: none; stroke-dasharray: 5.55,2.4; stroke-dashoffset: 0; stroke: #bf00bf; stroke-width: 1.5"/>
    </g>
    <g id="text_26">
     <!-- ('[1, 0]', 'upper_entrance') -->
     <g transform="translate(263.225 91.379687)scale(0.1 -0.1)">
      <use xlink:href="#DejaVuSans-28"/>
      <use xlink:href="#DejaVuSans-27" x="39.013672"/>
      <use xlink:href="#DejaVuSans-5b" x="66.503906"/>
      <use xlink:href="#DejaVuSans-31" x="105.517578"/>
      <use xlink:href="#DejaVuSans-2c" x="169.140625"/>
      <use xlink:href="#DejaVuSans-20" x="200.927734"/>
      <use xlink:href="#DejaVuSans-30" x="232.714844"/>
      <use xlink:href="#DejaVuSans-5d" x="296.337891"/>
      <use xlink:href="#DejaVuSans-27" x="335.351562"/>
      <use xlink:href="#DejaVuSans-2c" x="362.841797"/>
      <use xlink:href="#DejaVuSans-20" x="394.628906"/>
      <use xlink:href="#DejaVuSans-27" x="426.416016"/>
      <use xlink:href="#DejaVuSans-75" x="453.90625"/>
      <use xlink:href="#DejaVuSans-70" x="517.285156"/>
      <use xlink:href="#DejaVuSans-70" x="580.761719"/>
      <use xlink:href="#DejaVuSans-65" x="644.238281"/>
      <use xlink:href="#DejaVuSans-72" x="705.761719"/>
      <use xlink:href="#DejaVuSans-5f" x="746.875"/>
      <use xlink:href="#DejaVuSans-65" x="796.875"/>
      <use xlink:href="#DejaVuSans-6e" x="858.398438"/>
      <use xlink:href="#DejaVuSans-74" x="921.777344"/>
      <use xlink:href="#DejaVuSans-72" x="960.986328"/>
      <use xlink:href="#DejaVuSans-61" x="1002.099609"/>
      <use xlink:href="#DejaVuSans-6e" x="1063.378906"/>
      <use xlink:href="#DejaVuSans-63" x="1126.757812"/>
      <use xlink:href="#DejaVuSans-65" x="1181.738281"/>
      <use xlink:href="#DejaVuSans-27" x="1243.261719"/>
      <use xlink:href="#DejaVuSans-29" x="1270.751953"/>
     </g>
    </g>
    <g id="line2d_38">
     <path d="M 235.225 102.835938 
L 245.225 102.835938 
L 255.225 102.835938 
" style="fill: none; stroke: #0000ff; stroke-width: 1.5; stroke-linecap: square"/>
    </g>
    <g id="text_27">
     <!-- ('[1, 1]', 'left_entrance') -->
     <g transform="translate(263.225 106.335938)scale(0.1 -0.1)">
      <use xlink:href="#DejaVuSans-28"/>
      <use xlink:href="#DejaVuSans-27" x="39.013672"/>
      <use xlink:href="#DejaVuSans-5b" x="66.503906"/>
      <use xlink:href="#DejaVuSans-31" x="105.517578"/>
      <use xlink:href="#DejaVuSans-2c" x="169.140625"/>
      <use xlink:href="#DejaVuSans-20" x="200.927734"/>
      <use xlink:href="#DejaVuSans-31" x="232.714844"/>
      <use xlink:href="#DejaVuSans-5d" x="296.337891"/>
      <use xlink:href="#DejaVuSans-27" x="335.351562"/>
      <use xlink:href="#DejaVuSans-2c" x="362.841797"/>
      <use xlink:href="#DejaVuSans-20" x="394.628906"/>
      <use xlink:href="#DejaVuSans-27" x="426.416016"/>
      <use xlink:href="#DejaVuSans-6c" x="453.90625"/>
      <use xlink:href="#DejaVuSans-65" x="481.689453"/>
      <use xlink:href="#DejaVuSans-66" x="543.212891"/>
      <use xlink:href="#DejaVuSans-74" x="576.667969"/>
      <use xlink:href="#DejaVuSans-5f" x="615.876953"/>
      <use xlink:href="#DejaVuSans-65" x="665.876953"/>
      <use xlink:href="#DejaVuSans-6e" x="727.400391"/>
      <use xlink:href="#DejaVuSans-74" x="790.779297"/>
      <use xlink:href="#DejaVuSans-72" x="829.988281"/>
      <use xlink:href="#DejaVuSans-61" x="871.101562"/>
      <use xlink:href="#DejaVuSans-6e" x="932.380859"/>
      <use xlink:href="#DejaVuSans-63" x="995.759766"/>
      <use xlink:href="#DejaVuSans-65" x="1050.740234"/>
      <use xlink:href="#DejaVuSans-27" x="1112.263672"/>
      <use xlink:href="#DejaVuSans-29" x="1139.753906"/>
     </g>
    </g>
    <g id="line2d_39">
     <path d="M 235.225 117.792187 
L 245.225 117.792187 
L 255.225 117.792187 
" style="fill: none; stroke-dasharray: 5.55,2.4; stroke-dashoffset: 0; stroke: #0000ff; stroke-width: 1.5"/>
    </g>
    <g id="text_28">
     <!-- ('[1, 1]', 'lower_entrance') -->
     <g transform="translate(263.225 121.292187)scale(0.1 -0.1)">
      <use xlink:href="#DejaVuSans-28"/>
      <use xlink:href="#DejaVuSans-27" x="39.013672"/>
      <use xlink:href="#DejaVuSans-5b" x="66.503906"/>
      <use xlink:href="#DejaVuSans-31" x="105.517578"/>
      <use xlink:href="#DejaVuSans-2c" x="169.140625"/>
      <use xlink:href="#DejaVuSans-20" x="200.927734"/>
      <use xlink:href="#DejaVuSans-31" x="232.714844"/>
      <use xlink:href="#DejaVuSans-5d" x="296.337891"/>
      <use xlink:href="#DejaVuSans-27" x="335.351562"/>
      <use xlink:href="#DejaVuSans-2c" x="362.841797"/>
      <use xlink:href="#DejaVuSans-20" x="394.628906"/>
      <use xlink:href="#DejaVuSans-27" x="426.416016"/>
      <use xlink:href="#DejaVuSans-6c" x="453.90625"/>
      <use xlink:href="#DejaVuSans-6f" x="481.689453"/>
      <use xlink:href="#DejaVuSans-77" x="542.871094"/>
      <use xlink:href="#DejaVuSans-65" x="624.658203"/>
      <use xlink:href="#DejaVuSans-72" x="686.181641"/>
      <use xlink:href="#DejaVuSans-5f" x="727.294922"/>
      <use xlink:href="#DejaVuSans-65" x="777.294922"/>
      <use xlink:href="#DejaVuSans-6e" x="838.818359"/>
      <use xlink:href="#DejaVuSans-74" x="902.197266"/>
      <use xlink:href="#DejaVuSans-72" x="941.40625"/>
      <use xlink:href="#DejaVuSans-61" x="982.519531"/>
      <use xlink:href="#DejaVuSans-6e" x="1043.798828"/>
      <use xlink:href="#DejaVuSans-63" x="1107.177734"/>
      <use xlink:href="#DejaVuSans-65" x="1162.158203"/>
      <use xlink:href="#DejaVuSans-27" x="1223.681641"/>
      <use xlink:href="#DejaVuSans-29" x="1251.171875"/>
     </g>
    </g>
   </g>
   <g id="Path3DCollection_4">
    <g clip-path="url(#pe7b572f9e2)">
     <use xlink:href="#m9b3473e75f" x="280.874004" y="234.736127" style="fill: #ff0000; stroke: #ff0000"/>
    </g>
   </g>
   <g id="Path3DCollection_5">
    <g clip-path="url(#pe7b572f9e2)">
     <use xlink:href="#m9b3473e75f" x="282.278503" y="281.790146" style="fill: #ff0000; stroke: #ff0000"/>
    </g>
   </g>
   <g id="Path3DCollection_6">
    <g clip-path="url(#pe7b572f9e2)">
     <use xlink:href="#m9b3473e75f" x="282.305325" y="280.016364" style="fill: #ff0000; stroke: #ff0000"/>
    </g>
   </g>
  </g>
 </g>
 <defs>
  <clipPath id="pe7b572f9e2">
   <rect x="57.6" y="0" width="345.6" height="345.6"/>
  </clipPath>
 </defs>
</svg>
